<svg xmlns="http://www.w3.org/2000/svg" width="800" height="450" viewBox="0 0 800 450">
<rect x="0.0" y="0.0" width="800.0" height="450.0" rx="0" fill="#0f172a" fill-opacity="1.0" stroke="none" stroke-width="2"/>
<text x="400.0" y="34.0" font-family="Helvetica, Arial, sans-serif" font-size="24" font-weight="bold" fill="#94a3b8" text-anchor="middle">Battery room: gas must not build up (section)</text>
<line x1="40.0" y1="70.0" x2="760.0" y2="70.0" stroke="#64748b" stroke-width="4" stroke-linecap="round" stroke-opacity="1.0"/>
<line x1="40.0" y1="380.0" x2="760.0" y2="380.0" stroke="#94a3b8" stroke-width="4" stroke-linecap="round" stroke-opacity="1.0"/>
<rect x="33.0" y="70.0" width="14.0" height="310.0" rx="0" fill="#334155" fill-opacity="1.0" stroke="#94a3b8" stroke-width="2"/>
<rect x="753.0" y="70.0" width="14.0" height="310.0" rx="0" fill="#334155" fill-opacity="1.0" stroke="#94a3b8" stroke-width="2"/>
<rect x="140.0" y="300.0" width="360.0" height="16.0" rx="0" fill="#64748b" fill-opacity="1.0" stroke="#94a3b8" stroke-width="2"/>
<rect x="150.0" y="250.0" width="48.0" height="50.0" rx="3" fill="#334155" fill-opacity="1.0" stroke="#e2e8f0" stroke-width="2"/>
<rect x="158.0" y="242.0" width="10.0" height="8.0" rx="0" fill="#f87171" fill-opacity="1.0" stroke="none" stroke-width="2"/>
<rect x="180.0" y="242.0" width="10.0" height="8.0" rx="0" fill="#e2e8f0" fill-opacity="1.0" stroke="none" stroke-width="2"/>
<rect x="208.0" y="250.0" width="48.0" height="50.0" rx="3" fill="#334155" fill-opacity="1.0" stroke="#e2e8f0" stroke-width="2"/>
<rect x="216.0" y="242.0" width="10.0" height="8.0" rx="0" fill="#f87171" fill-opacity="1.0" stroke="none" stroke-width="2"/>
<rect x="238.0" y="242.0" width="10.0" height="8.0" rx="0" fill="#e2e8f0" fill-opacity="1.0" stroke="none" stroke-width="2"/>
<rect x="266.0" y="250.0" width="48.0" height="50.0" rx="3" fill="#334155" fill-opacity="1.0" stroke="#e2e8f0" stroke-width="2"/>
<rect x="274.0" y="242.0" width="10.0" height="8.0" rx="0" fill="#f87171" fill-opacity="1.0" stroke="none" stroke-width="2"/>
<rect x="296.0" y="242.0" width="10.0" height="8.0" rx="0" fill="#e2e8f0" fill-opacity="1.0" stroke="none" stroke-width="2"/>
<rect x="324.0" y="250.0" width="48.0" height="50.0" rx="3" fill="#334155" fill-opacity="1.0" stroke="#e2e8f0" stroke-width="2"/>
<rect x="332.0" y="242.0" width="10.0" height="8.0" rx="0" fill="#f87171" fill-opacity="1.0" stroke="none" stroke-width="2"/>
<rect x="354.0" y="242.0" width="10.0" height="8.0" rx="0" fill="#e2e8f0" fill-opacity="1.0" stroke="none" stroke-width="2"/>
<rect x="382.0" y="250.0" width="48.0" height="50.0" rx="3" fill="#334155" fill-opacity="1.0" stroke="#e2e8f0" stroke-width="2"/>
<rect x="390.0" y="242.0" width="10.0" height="8.0" rx="0" fill="#f87171" fill-opacity="1.0" stroke="none" stroke-width="2"/>
<rect x="412.0" y="242.0" width="10.0" height="8.0" rx="0" fill="#e2e8f0" fill-opacity="1.0" stroke="none" stroke-width="2"/>
<rect x="440.0" y="250.0" width="48.0" height="50.0" rx="3" fill="#334155" fill-opacity="1.0" stroke="#e2e8f0" stroke-width="2"/>
<rect x="448.0" y="242.0" width="10.0" height="8.0" rx="0" fill="#f87171" fill-opacity="1.0" stroke="none" stroke-width="2"/>
<rect x="470.0" y="242.0" width="10.0" height="8.0" rx="0" fill="#e2e8f0" fill-opacity="1.0" stroke="none" stroke-width="2"/>
<line x1="160.0" y1="316.0" x2="160.0" y2="380.0" stroke="#64748b" stroke-width="8" stroke-linecap="round" stroke-opacity="1.0"/>
<line x1="480.0" y1="316.0" x2="480.0" y2="380.0" stroke="#64748b" stroke-width="8" stroke-linecap="round" stroke-opacity="1.0"/>
<circle cx="190.0" cy="210.0" r="7" fill="none" stroke="#38bdf8" stroke-width="2"/>
<circle cx="260.0" cy="180.0" r="8" fill="none" stroke="#38bdf8" stroke-width="2"/>
<circle cx="330.0" cy="150.0" r="9" fill="none" stroke="#38bdf8" stroke-width="2"/>
<circle cx="400.0" cy="120.0" r="7" fill="none" stroke="#38bdf8" stroke-width="2"/>
<circle cx="300.0" cy="110.0" r="8" fill="none" stroke="#38bdf8" stroke-width="2"/>
<circle cx="450.0" cy="98.0" r="9" fill="none" stroke="#38bdf8" stroke-width="2"/>
<text x="250.0" y="236.0" font-family="Helvetica, Arial, sans-serif" font-size="20" fill="#94a3b8" text-anchor="start">gas from the cells (some types)</text>
<rect x="740.0" y="84.0" width="34.0" height="60.0" rx="0" fill="#0f172a" fill-opacity="1.0" stroke="#e2e8f0" stroke-width="3"/>
<line x1="700.0" y1="110.0" x2="782.8" y2="110.0" stroke="#34d399" stroke-width="3" stroke-linecap="round" stroke-opacity="1.0"/>
<polygon points="790.0,110.0 778.0,116.0 778.0,104.0" fill="#34d399" fill-opacity="1.0" stroke="none" stroke-width="2"/>
<text x="690.0" y="170.0" font-family="Helvetica, Arial, sans-serif" font-size="22" font-weight="bold" fill="#34d399" text-anchor="end">high exhaust</text>
<rect x="26.0" y="320.0" width="34.0" height="50.0" rx="0" fill="#0f172a" fill-opacity="1.0" stroke="#e2e8f0" stroke-width="3"/>
<line x1="10.0" y1="345.0" x2="92.8" y2="345.0" stroke="#34d399" stroke-width="3" stroke-linecap="round" stroke-opacity="1.0"/>
<polygon points="100.0,345.0 88.0,351.0 88.0,339.0" fill="#34d399" fill-opacity="1.0" stroke="none" stroke-width="2"/>
<text x="64.0" y="406.0" font-family="Helvetica, Arial, sans-serif" font-size="22" font-weight="bold" fill="#34d399" text-anchor="start">low inlet</text>
<text x="40.0" y="436.0" font-family="Helvetica, Arial, sans-serif" font-size="22" fill="#e2e8f0" text-anchor="start">Ventilation prevents an</text>
<text x="273.8" y="436.0" font-family="Helvetica, Arial, sans-serif" font-size="22" font-weight="bold" fill="#34d399" text-anchor="start">explosive</text>
<text x="390.1" y="436.0" font-family="Helvetica, Arial, sans-serif" font-size="22" fill="#e2e8f0" text-anchor="start">mixture</text>
<rect x="615.6" y="416.0" width="170.4" height="36.0" rx="8" fill="#1e293b" fill-opacity="1.0" stroke="#64748b" stroke-width="2"/>
<text x="625.6" y="444.0" font-family="Helvetica, Arial, sans-serif" font-size="22" font-weight="bold" fill="#38bdf8" text-anchor="start">NEC 480.10(A)</text>
</svg>
