<svg xmlns="http://www.w3.org/2000/svg" width="800" height="440" viewBox="0 0 800 440">
<rect x="0.0" y="0.0" width="800.0" height="440.0" rx="0" fill="#0f172a" fill-opacity="1.0" stroke="none" stroke-width="2"/>
<text x="400.0" y="34.0" font-family="Helvetica, Arial, sans-serif" font-size="24" font-weight="bold" fill="#94a3b8" text-anchor="middle">Light equipment on an ordinary box (section)</text>
<rect x="226.0" y="60.0" width="16.0" height="98.0" rx="0" fill="#334155" fill-opacity="1.0" stroke="#94a3b8" stroke-width="2"/>
<rect x="226.0" y="282.0" width="16.0" height="118.0" rx="0" fill="#334155" fill-opacity="1.0" stroke="#94a3b8" stroke-width="2"/>
<text x="216.0" y="86.0" font-family="Helvetica, Arial, sans-serif" font-size="22" fill="#94a3b8" text-anchor="end">wall</text>
<polygon points="220.0,150.0 120.0,150.0 120.0,290.0 220.0,290.0" fill="#1e293b" fill-opacity="1.0" stroke="none" stroke-width="2"/>
<polyline points="220.0,150.0 120.0,150.0 120.0,290.0 220.0,290.0" fill="none" stroke="#e2e8f0" stroke-width="4" stroke-linecap="round" stroke-linejoin="round"/>
<text x="170.0" y="138.0" font-family="Helvetica, Arial, sans-serif" font-size="22" fill="#94a3b8" text-anchor="middle">box</text>
<rect x="218.0" y="140.0" width="8.0" height="160.0" rx="0" fill="#64748b" fill-opacity="1.0" stroke="#e2e8f0" stroke-width="2"/>
<rect x="226.0" y="158.0" width="16.0" height="6.0" rx="0" fill="#64748b" fill-opacity="1.0" stroke="#e2e8f0" stroke-width="1"/>
<rect x="226.0" y="276.0" width="16.0" height="6.0" rx="0" fill="#64748b" fill-opacity="1.0" stroke="#e2e8f0" stroke-width="1"/>
<rect x="226.0" y="163.0" width="12.0" height="14.0" rx="0" fill="#64748b" fill-opacity="1.0" stroke="#e2e8f0" stroke-width="1"/>
<rect x="226.0" y="269.0" width="12.0" height="14.0" rx="0" fill="#64748b" fill-opacity="1.0" stroke="#e2e8f0" stroke-width="1"/>
<text x="150.0" y="330.0" font-family="Helvetica, Arial, sans-serif" font-size="22" fill="#94a3b8" text-anchor="middle">plaster ring</text>
<line x1="206.0" y1="320.0" x2="222.0" y2="300.0" stroke="#94a3b8" stroke-width="2" stroke-linecap="round" stroke-opacity="1.0"/>
<circle cx="222.0" cy="300.0" r="4" fill="#94a3b8" stroke="none" stroke-width="2"/>
<rect x="242.0" y="154.0" width="10.0" height="132.0" rx="0" fill="#64748b" fill-opacity="1.0" stroke="#e2e8f0" stroke-width="2"/>
<rect x="252.0" y="176.0" width="150.0" height="88.0" rx="10" fill="#1e293b" fill-opacity="1.0" stroke="#e2e8f0" stroke-width="3"/>
<text x="327.0" y="228.0" font-family="Helvetica, Arial, sans-serif" font-size="22" font-weight="bold" fill="#e2e8f0" text-anchor="middle">equipment</text>
<line x1="228.0" y1="170.0" x2="256.0" y2="170.0" stroke="#fbbf24" stroke-width="5" stroke-linecap="round" stroke-opacity="1.0"/>
<rect x="252.0" y="163.0" width="8.0" height="14.0" rx="2" fill="#fbbf24" fill-opacity="1.0" stroke="none" stroke-width="2"/>
<line x1="228.0" y1="276.0" x2="256.0" y2="276.0" stroke="#fbbf24" stroke-width="5" stroke-linecap="round" stroke-opacity="1.0"/>
<rect x="252.0" y="269.0" width="8.0" height="14.0" rx="2" fill="#fbbf24" fill-opacity="1.0" stroke="none" stroke-width="2"/>
<text x="420.0" y="330.0" font-family="Helvetica, Arial, sans-serif" font-size="24" font-weight="bold" fill="#e2e8f0" text-anchor="start">6 lb or less</text>
<text x="420.0" y="150.0" font-family="Helvetica, Arial, sans-serif" font-size="22" fill="#e2e8f0" text-anchor="start">yoke held by two</text>
<text x="420.0" y="190.0" font-family="Helvetica, Arial, sans-serif" font-size="26" font-weight="bold" fill="#34d399" text-anchor="start">No. 6 or larger</text>
<text x="420.0" y="228.0" font-family="Helvetica, Arial, sans-serif" font-size="22" fill="#e2e8f0" text-anchor="start">screws</text>
<line x1="412.0" y1="144.0" x2="260.0" y2="168.0" stroke="#fbbf24" stroke-width="2" stroke-linecap="round" stroke-opacity="1.0"/>
<circle cx="260.0" cy="168.0" r="4" fill="#fbbf24" stroke="none" stroke-width="2"/>
<text x="420.0" y="366.0" font-family="Helvetica, Arial, sans-serif" font-size="20" fill="#94a3b8" text-anchor="start">heavier: the box must support it</text>
<text x="420.0" y="390.0" font-family="Helvetica, Arial, sans-serif" font-size="20" fill="#94a3b8" text-anchor="start">like a luminaire (314.27(A))</text>
<rect x="576.5" y="406.0" width="209.5" height="36.0" rx="8" fill="#1e293b" fill-opacity="1.0" stroke="#64748b" stroke-width="2"/>
<text x="586.5" y="434.0" font-family="Helvetica, Arial, sans-serif" font-size="22" font-weight="bold" fill="#38bdf8" text-anchor="start">NEC 314.27(D) Ex.</text>
</svg>
