<svg xmlns="http://www.w3.org/2000/svg" width="800" height="540" viewBox="0 0 800 540">
<rect x="0.0" y="0.0" width="800.0" height="540.0" rx="0" fill="#0f172a" fill-opacity="1.0" stroke="none" stroke-width="2"/>
<text x="400.0" y="34.0" font-family="Helvetica, Arial, sans-serif" font-size="24" font-weight="bold" fill="#94a3b8" text-anchor="middle">Flat conductor cable under carpet squares (exploded, not to scale)</text>
<polygon points="60.0,114.0 120.0,90.0 440.0,90.0 380.0,114.0" fill="#6d28d9" fill-opacity="0.85" stroke="#e2e8f0" stroke-width="2"/>
<text x="460.0" y="108.0" font-family="Helvetica, Arial, sans-serif" font-size="20" font-weight="bold" fill="#e2e8f0" text-anchor="start">carpet square, 1.0 m (39.37 in) max</text>
<polygon points="60.0,174.0 120.0,150.0 440.0,150.0 380.0,174.0" fill="#fbbf24" fill-opacity="0.85" stroke="#e2e8f0" stroke-width="2"/>
<text x="460.0" y="168.0" font-family="Helvetica, Arial, sans-serif" font-size="20" font-weight="bold" fill="#e2e8f0" text-anchor="start">release-type adhesive</text>
<polygon points="60.0,234.0 120.0,210.0 440.0,210.0 380.0,234.0" fill="#64748b" fill-opacity="0.85" stroke="#e2e8f0" stroke-width="2"/>
<text x="460.0" y="228.0" font-family="Helvetica, Arial, sans-serif" font-size="20" font-weight="bold" fill="#e2e8f0" text-anchor="start">top shield (metal)</text>
<polygon points="60.0,294.0 120.0,270.0 440.0,270.0 380.0,294.0" fill="#cbd5e1" fill-opacity="0.85" stroke="#e2e8f0" stroke-width="2"/>
<text x="460.0" y="288.0" font-family="Helvetica, Arial, sans-serif" font-size="20" font-weight="bold" fill="#e2e8f0" text-anchor="start">FCC cable (flat conductors)</text>
<polygon points="60.0,354.0 120.0,330.0 440.0,330.0 380.0,354.0" fill="#64748b" fill-opacity="0.85" stroke="#e2e8f0" stroke-width="2"/>
<text x="460.0" y="348.0" font-family="Helvetica, Arial, sans-serif" font-size="20" font-weight="bold" fill="#e2e8f0" text-anchor="start">bottom shield</text>
<polygon points="60.0,414.0 120.0,390.0 440.0,390.0 380.0,414.0" fill="#94a3b8" fill-opacity="0.85" stroke="#e2e8f0" stroke-width="2"/>
<text x="460.0" y="408.0" font-family="Helvetica, Arial, sans-serif" font-size="20" font-weight="bold" fill="#e2e8f0" text-anchor="start">floor</text>
<line x1="128.5" y1="277.0" x2="396.5" y2="277.0" stroke="#b45309" stroke-width="3" stroke-linecap="round" stroke-opacity="1.0"/>
<line x1="116.0" y1="282.0" x2="384.0" y2="282.0" stroke="#b45309" stroke-width="3" stroke-linecap="round" stroke-opacity="1.0"/>
<line x1="103.5" y1="287.0" x2="371.5" y2="287.0" stroke="#b45309" stroke-width="3" stroke-linecap="round" stroke-opacity="1.0"/>
<rect x="750.0" y="360.0" width="20.0" height="160.0" rx="0" fill="#334155" fill-opacity="1.0" stroke="#94a3b8" stroke-width="2"/>
<rect x="620.0" y="440.0" width="120.0" height="50.0" rx="5" fill="#334155" fill-opacity="1.0" stroke="#e2e8f0" stroke-width="3"/>
<rect x="628.0" y="448.0" width="104.0" height="34.0" rx="3" fill="none" fill-opacity="1.0" stroke="#64748b" stroke-width="1.5"/>
<circle cx="636.0" cy="456.0" r="3" fill="#94a3b8" stroke="none" stroke-width="2"/>
<circle cx="724.0" cy="474.0" r="3" fill="#94a3b8" stroke="none" stroke-width="2"/>
<rect x="440.0" y="459.0" width="180.0" height="12.0" rx="0" fill="#cbd5e1" fill-opacity="1.0" stroke="#e2e8f0" stroke-width="1"/>
<line x1="446.0" y1="462.5" x2="614.0" y2="462.5" stroke="#b45309" stroke-width="1.5" stroke-linecap="round" stroke-opacity="1.0"/>
<line x1="446.0" y1="465.0" x2="614.0" y2="465.0" stroke="#b45309" stroke-width="1.5" stroke-linecap="round" stroke-opacity="1.0"/>
<line x1="446.0" y1="467.5" x2="614.0" y2="467.5" stroke="#b45309" stroke-width="1.5" stroke-linecap="round" stroke-opacity="1.0"/>
<line x1="740.0" y1="465.0" x2="750.0" y2="465.0" stroke="#e2e8f0" stroke-width="4" stroke-linecap="round" stroke-opacity="1.0"/>
<text x="600.0" y="522.0" font-family="Helvetica, Arial, sans-serif" font-size="20" font-weight="bold" fill="#34d399" text-anchor="middle">transition assembly</text>
<text x="300.0" y="470.0" font-family="Helvetica, Arial, sans-serif" font-size="20" fill="#94a3b8" text-anchor="middle">power feed and grounding</text>
<text x="300.0" y="493.0" font-family="Helvetica, Arial, sans-serif" font-size="20" fill="#94a3b8" text-anchor="middle">connections to other wiring:</text>
<rect x="676.7" y="44.0" width="109.3" height="36.0" rx="8" fill="#1e293b" fill-opacity="1.0" stroke="#64748b" stroke-width="2"/>
<text x="686.7" y="72.0" font-family="Helvetica, Arial, sans-serif" font-size="22" font-weight="bold" fill="#38bdf8" text-anchor="start">NEC 324</text>
</svg>
