<svg xmlns="http://www.w3.org/2000/svg" width="800" height="560" viewBox="0 0 800 560">
<rect x="0.0" y="0.0" width="800.0" height="560.0" rx="0" fill="#0f172a" fill-opacity="1.0" stroke="none" stroke-width="2"/>
<text x="400.0" y="34.0" font-family="Helvetica, Arial, sans-serif" font-size="24" font-weight="bold" fill="#94a3b8" text-anchor="middle">What must be in sight of the motor and the machine?</text>
<line x1="20.0" y1="420.0" x2="480.0" y2="420.0" stroke="#94a3b8" stroke-width="4" stroke-linecap="round" stroke-opacity="1.0"/>
<rect x="30.0" y="230.0" width="90.0" height="190.0" rx="4" fill="#1e293b" fill-opacity="1.0" stroke="#e2e8f0" stroke-width="3"/>
<rect x="40.0" y="242.0" width="70.0" height="35.0" rx="3" fill="#334155" fill-opacity="1.0" stroke="#64748b" stroke-width="2"/>
<rect x="94.0" y="250.0" width="9.0" height="19.0" rx="2" fill="#64748b" fill-opacity="1.0" stroke="#e2e8f0" stroke-width="1"/>
<rect x="40.0" y="285.0" width="70.0" height="35.0" rx="3" fill="#334155" fill-opacity="1.0" stroke="#64748b" stroke-width="2"/>
<rect x="94.0" y="293.0" width="9.0" height="19.0" rx="2" fill="#64748b" fill-opacity="1.0" stroke="#e2e8f0" stroke-width="1"/>
<rect x="40.0" y="328.0" width="70.0" height="35.0" rx="3" fill="#334155" fill-opacity="1.0" stroke="#64748b" stroke-width="2"/>
<rect x="94.0" y="336.0" width="9.0" height="19.0" rx="2" fill="#64748b" fill-opacity="1.0" stroke="#e2e8f0" stroke-width="1"/>
<rect x="40.0" y="371.0" width="70.0" height="35.0" rx="3" fill="#334155" fill-opacity="1.0" stroke="#64748b" stroke-width="2"/>
<rect x="94.0" y="379.0" width="9.0" height="19.0" rx="2" fill="#64748b" fill-opacity="1.0" stroke="#e2e8f0" stroke-width="1"/>
<text x="75.0" y="200.0" font-family="Helvetica, Arial, sans-serif" font-size="20" font-weight="bold" fill="#e2e8f0" text-anchor="middle">controller</text>
<text x="75.0" y="222.0" font-family="Helvetica, Arial, sans-serif" font-size="20" font-weight="bold" fill="#e2e8f0" text-anchor="middle">(MCC room)</text>
<rect x="141.0" y="110.0" width="18.0" height="310.0" rx="0" fill="#334155" fill-opacity="1.0" stroke="#94a3b8" stroke-width="2"/>
<rect x="296.4" y="409.0" width="15.1" height="8.0" rx="0" fill="#64748b" fill-opacity="1.0" stroke="#e2e8f0" stroke-width="1.5"/>
<rect x="348.5" y="409.0" width="15.1" height="8.0" rx="0" fill="#64748b" fill-opacity="1.0" stroke="#e2e8f0" stroke-width="1.5"/>
<line x1="289.7" y1="418.5" x2="370.3" y2="418.5" stroke="#94a3b8" stroke-width="3" stroke-linecap="round" stroke-opacity="1.0"/>
<rect x="288.0" y="361.0" width="84.0" height="50.0" rx="11.0" fill="#334155" fill-opacity="1.0" stroke="#e2e8f0" stroke-width="3"/>
<line x1="304.8" y1="369.3" x2="355.2" y2="369.3" stroke="#64748b" stroke-width="2" stroke-linecap="round" stroke-opacity="1.0"/>
<line x1="304.8" y1="377.7" x2="355.2" y2="377.7" stroke="#64748b" stroke-width="2" stroke-linecap="round" stroke-opacity="1.0"/>
<line x1="304.8" y1="386.0" x2="355.2" y2="386.0" stroke="#64748b" stroke-width="2" stroke-linecap="round" stroke-opacity="1.0"/>
<line x1="304.8" y1="394.3" x2="355.2" y2="394.3" stroke="#64748b" stroke-width="2" stroke-linecap="round" stroke-opacity="1.0"/>
<line x1="304.8" y1="402.7" x2="355.2" y2="402.7" stroke="#64748b" stroke-width="2" stroke-linecap="round" stroke-opacity="1.0"/>
<line x1="299.8" y1="365.0" x2="299.8" y2="407.0" stroke="#94a3b8" stroke-width="2" stroke-linecap="round" stroke-opacity="1.0"/>
<line x1="360.2" y1="365.0" x2="360.2" y2="407.0" stroke="#94a3b8" stroke-width="2" stroke-linecap="round" stroke-opacity="1.0"/>
<rect x="372.0" y="381.5" width="18.5" height="9.0" rx="2" fill="#94a3b8" fill-opacity="1.0" stroke="#e2e8f0" stroke-width="1.5"/>
<rect x="316.6" y="349.0" width="26.9" height="13.0" rx="3" fill="#334155" fill-opacity="1.0" stroke="#e2e8f0" stroke-width="2"/>
<text x="330.0" y="395.0" font-family="Helvetica, Arial, sans-serif" font-size="24" font-weight="bold" fill="#e2e8f0" text-anchor="middle">M</text>
<rect x="388.0" y="377.0" width="16.0" height="18.0" rx="2" fill="#64748b" fill-opacity="1.0" stroke="#e2e8f0" stroke-width="1.5"/>
<rect x="412.0" y="408.0" width="40.0" height="12.0" rx="0" fill="#64748b" fill-opacity="1.0" stroke="#e2e8f0" stroke-width="1.5"/>
<rect x="436.0" y="316.0" width="18.0" height="44.0" rx="0" fill="#64748b" fill-opacity="1.0" stroke="#e2e8f0" stroke-width="1.5"/>
<rect x="430.0" y="310.0" width="30.0" height="8.0" rx="2" fill="#64748b" fill-opacity="1.0" stroke="#e2e8f0" stroke-width="1.5"/>
<circle cx="432.0" cy="384.0" r="28" fill="#334155" stroke="#e2e8f0" stroke-width="3"/>
<circle cx="432.0" cy="384.0" r="9" fill="#64748b" stroke="#e2e8f0" stroke-width="1.5"/>
<text x="434.0" y="450.0" font-family="Helvetica, Arial, sans-serif" font-size="20" font-weight="bold" fill="#e2e8f0" text-anchor="middle">driven</text>
<text x="434.0" y="471.0" font-family="Helvetica, Arial, sans-serif" font-size="20" font-weight="bold" fill="#e2e8f0" text-anchor="middle">machine</text>
<rect x="200.0" y="236.0" width="48.0" height="64.0" rx="5" fill="#334155" fill-opacity="1.0" stroke="#e2e8f0" stroke-width="4"/>
<rect x="205.0" y="241.0" width="38.0" height="54.0" rx="3" fill="none" fill-opacity="1.0" stroke="#64748b" stroke-width="2"/>
<rect x="220.2" y="293.0" width="7.7" height="11.0" rx="2" fill="#64748b" fill-opacity="1.0" stroke="#e2e8f0" stroke-width="1.5"/>
<rect x="246.0" y="250.1" width="8.0" height="10.2" rx="2" fill="#64748b" fill-opacity="1.0" stroke="#e2e8f0" stroke-width="1.5"/>
<line x1="252.0" y1="255.2" x2="262.5" y2="242.4" stroke="#e2e8f0" stroke-width="5.0" stroke-linecap="round" stroke-opacity="1.0"/>
<circle cx="262.5" cy="242.4" r="4.0" fill="#e2e8f0" stroke="none" stroke-width="2"/>
<circle cx="252.0" cy="255.2" r="4.0" fill="#1e293b" stroke="#e2e8f0" stroke-width="1.5"/>
<line x1="224.0" y1="300.0" x2="224.0" y2="420.0" stroke="#64748b" stroke-width="6" stroke-linecap="round" stroke-opacity="1.0"/>
<text x="248.0" y="150.0" font-family="Helvetica, Arial, sans-serif" font-size="22" font-weight="bold" fill="#34d399" text-anchor="middle">disconnecting</text>
<text x="248.0" y="174.2" font-family="Helvetica, Arial, sans-serif" font-size="22" font-weight="bold" fill="#34d399" text-anchor="middle">means</text>
<line x1="240.0" y1="176.0" x2="226.0" y2="232.0" stroke="#94a3b8" stroke-width="2" stroke-linecap="round" stroke-opacity="1.0"/>
<circle cx="226.0" cy="232.0" r="4" fill="#94a3b8" stroke="none" stroke-width="2"/>
<line x1="268.0" y1="276.0" x2="271.8" y2="280.6" stroke="#38bdf8" stroke-width="2" stroke-linecap="round" stroke-opacity="1.0"/>
<line x1="275.0" y1="284.5" x2="278.7" y2="289.2" stroke="#38bdf8" stroke-width="2" stroke-linecap="round" stroke-opacity="1.0"/>
<line x1="281.9" y1="293.0" x2="285.7" y2="297.7" stroke="#38bdf8" stroke-width="2" stroke-linecap="round" stroke-opacity="1.0"/>
<line x1="288.9" y1="301.6" x2="292.7" y2="306.2" stroke="#38bdf8" stroke-width="2" stroke-linecap="round" stroke-opacity="1.0"/>
<line x1="295.8" y1="310.1" x2="299.6" y2="314.7" stroke="#38bdf8" stroke-width="2" stroke-linecap="round" stroke-opacity="1.0"/>
<line x1="302.8" y1="318.6" x2="306.6" y2="323.3" stroke="#38bdf8" stroke-width="2" stroke-linecap="round" stroke-opacity="1.0"/>
<line x1="309.7" y1="327.1" x2="313.5" y2="331.8" stroke="#38bdf8" stroke-width="2" stroke-linecap="round" stroke-opacity="1.0"/>
<line x1="316.7" y1="335.7" x2="320.5" y2="340.3" stroke="#38bdf8" stroke-width="2" stroke-linecap="round" stroke-opacity="1.0"/>
<line x1="323.6" y1="344.2" x2="327.4" y2="348.8" stroke="#38bdf8" stroke-width="2" stroke-linecap="round" stroke-opacity="1.0"/>
<line x1="268.0" y1="276.0" x2="273.8" y2="277.7" stroke="#38bdf8" stroke-width="2" stroke-linecap="round" stroke-opacity="1.0"/>
<line x1="278.5" y1="279.1" x2="284.3" y2="280.8" stroke="#38bdf8" stroke-width="2" stroke-linecap="round" stroke-opacity="1.0"/>
<line x1="289.1" y1="282.3" x2="294.8" y2="284.0" stroke="#38bdf8" stroke-width="2" stroke-linecap="round" stroke-opacity="1.0"/>
<line x1="299.6" y1="285.4" x2="305.4" y2="287.1" stroke="#38bdf8" stroke-width="2" stroke-linecap="round" stroke-opacity="1.0"/>
<line x1="310.2" y1="288.6" x2="315.9" y2="290.3" stroke="#38bdf8" stroke-width="2" stroke-linecap="round" stroke-opacity="1.0"/>
<line x1="320.7" y1="291.7" x2="326.5" y2="293.4" stroke="#38bdf8" stroke-width="2" stroke-linecap="round" stroke-opacity="1.0"/>
<line x1="331.3" y1="294.8" x2="337.0" y2="296.5" stroke="#38bdf8" stroke-width="2" stroke-linecap="round" stroke-opacity="1.0"/>
<line x1="341.8" y1="298.0" x2="347.6" y2="299.7" stroke="#38bdf8" stroke-width="2" stroke-linecap="round" stroke-opacity="1.0"/>
<line x1="352.3" y1="301.1" x2="358.1" y2="302.8" stroke="#38bdf8" stroke-width="2" stroke-linecap="round" stroke-opacity="1.0"/>
<line x1="362.9" y1="304.2" x2="368.6" y2="306.0" stroke="#38bdf8" stroke-width="2" stroke-linecap="round" stroke-opacity="1.0"/>
<line x1="373.4" y1="307.4" x2="379.2" y2="309.1" stroke="#38bdf8" stroke-width="2" stroke-linecap="round" stroke-opacity="1.0"/>
<line x1="384.0" y1="310.5" x2="389.7" y2="312.2" stroke="#38bdf8" stroke-width="2" stroke-linecap="round" stroke-opacity="1.0"/>
<line x1="394.5" y1="313.7" x2="400.3" y2="315.4" stroke="#38bdf8" stroke-width="2" stroke-linecap="round" stroke-opacity="1.0"/>
<line x1="405.1" y1="316.8" x2="410.8" y2="318.5" stroke="#38bdf8" stroke-width="2" stroke-linecap="round" stroke-opacity="1.0"/>
<line x1="415.6" y1="319.9" x2="421.4" y2="321.6" stroke="#38bdf8" stroke-width="2" stroke-linecap="round" stroke-opacity="1.0"/>
<line x1="426.1" y1="323.1" x2="431.9" y2="324.8" stroke="#38bdf8" stroke-width="2" stroke-linecap="round" stroke-opacity="1.0"/>
<text x="250.0" y="490.0" font-family="Helvetica, Arial, sans-serif" font-size="20" font-weight="bold" fill="#38bdf8" text-anchor="middle">in sight: visible and</text>
<text x="250.0" y="513.0" font-family="Helvetica, Arial, sans-serif" font-size="20" font-weight="bold" fill="#38bdf8" text-anchor="middle">not more than 50 ft</text>
<text x="75.0" y="470.0" font-family="Helvetica, Arial, sans-serif" font-size="20" font-weight="bold" fill="#f87171" text-anchor="middle">out of</text>
<text x="75.0" y="492.0" font-family="Helvetica, Arial, sans-serif" font-size="20" font-weight="bold" fill="#f87171" text-anchor="middle">sight</text>
<rect x="500.0" y="56.0" width="280.0" height="480.0" rx="8" fill="#1e293b" fill-opacity="1.0" stroke="#64748b" stroke-width="2"/>
<text x="640.0" y="86.0" font-family="Helvetica, Arial, sans-serif" font-size="22" font-weight="bold" fill="#e2e8f0" text-anchor="middle">rooftop A/C</text>
<line x1="516.0" y1="400.0" x2="764.0" y2="400.0" stroke="#94a3b8" stroke-width="4" stroke-linecap="round" stroke-opacity="1.0"/>
<rect x="526.0" y="386.0" width="160.0" height="14.0" rx="0" fill="#64748b" fill-opacity="1.0" stroke="#e2e8f0" stroke-width="1.5"/>
<path d="M 558 262 Q 606 226 654 262 Z" fill="#334155" stroke="#e2e8f0" stroke-width="2" stroke-linecap="round" stroke-linejoin="round"/>
<line x1="574.0" y1="250.0" x2="574.0" y2="260.0" stroke="#64748b" stroke-width="2" stroke-linecap="round" stroke-opacity="1.0"/>
<line x1="590.0" y1="250.0" x2="590.0" y2="260.0" stroke="#64748b" stroke-width="2" stroke-linecap="round" stroke-opacity="1.0"/>
<line x1="606.0" y1="250.0" x2="606.0" y2="260.0" stroke="#64748b" stroke-width="2" stroke-linecap="round" stroke-opacity="1.0"/>
<line x1="622.0" y1="250.0" x2="622.0" y2="260.0" stroke="#64748b" stroke-width="2" stroke-linecap="round" stroke-opacity="1.0"/>
<line x1="638.0" y1="250.0" x2="638.0" y2="260.0" stroke="#64748b" stroke-width="2" stroke-linecap="round" stroke-opacity="1.0"/>
<rect x="530.0" y="260.0" width="152.0" height="126.0" rx="4" fill="#334155" fill-opacity="1.0" stroke="#e2e8f0" stroke-width="3"/>
<line x1="542.0" y1="276.0" x2="600.0" y2="276.0" stroke="#64748b" stroke-width="2" stroke-linecap="round" stroke-opacity="1.0"/>
<line x1="542.0" y1="286.0" x2="600.0" y2="286.0" stroke="#64748b" stroke-width="2" stroke-linecap="round" stroke-opacity="1.0"/>
<line x1="542.0" y1="296.0" x2="600.0" y2="296.0" stroke="#64748b" stroke-width="2" stroke-linecap="round" stroke-opacity="1.0"/>
<line x1="542.0" y1="306.0" x2="600.0" y2="306.0" stroke="#64748b" stroke-width="2" stroke-linecap="round" stroke-opacity="1.0"/>
<line x1="542.0" y1="316.0" x2="600.0" y2="316.0" stroke="#64748b" stroke-width="2" stroke-linecap="round" stroke-opacity="1.0"/>
<line x1="542.0" y1="326.0" x2="600.0" y2="326.0" stroke="#64748b" stroke-width="2" stroke-linecap="round" stroke-opacity="1.0"/>
<line x1="542.0" y1="336.0" x2="600.0" y2="336.0" stroke="#64748b" stroke-width="2" stroke-linecap="round" stroke-opacity="1.0"/>
<line x1="542.0" y1="346.0" x2="600.0" y2="346.0" stroke="#64748b" stroke-width="2" stroke-linecap="round" stroke-opacity="1.0"/>
<line x1="542.0" y1="356.0" x2="600.0" y2="356.0" stroke="#64748b" stroke-width="2" stroke-linecap="round" stroke-opacity="1.0"/>
<line x1="542.0" y1="366.0" x2="600.0" y2="366.0" stroke="#64748b" stroke-width="2" stroke-linecap="round" stroke-opacity="1.0"/>
<rect x="612.0" y="276.0" width="58.0" height="96.0" rx="3" fill="none" fill-opacity="1.0" stroke="#64748b" stroke-width="2"/>
<rect x="658.0" y="316.0" width="6.0" height="18.0" rx="2" fill="#94a3b8" fill-opacity="1.0" stroke="none" stroke-width="2"/>
<rect x="702.0" y="300.0" width="40.0" height="54.0" rx="5" fill="#334155" fill-opacity="1.0" stroke="#e2e8f0" stroke-width="4"/>
<rect x="707.0" y="305.0" width="30.0" height="44.0" rx="3" fill="none" fill-opacity="1.0" stroke="#64748b" stroke-width="2"/>
<rect x="718.8" y="347.0" width="6.4" height="11.0" rx="2" fill="#64748b" fill-opacity="1.0" stroke="#e2e8f0" stroke-width="1.5"/>
<rect x="740.0" y="311.9" width="8.0" height="8.6" rx="2" fill="#64748b" fill-opacity="1.0" stroke="#e2e8f0" stroke-width="1.5"/>
<line x1="746.0" y1="316.2" x2="754.4" y2="305.4" stroke="#e2e8f0" stroke-width="5.0" stroke-linecap="round" stroke-opacity="1.0"/>
<circle cx="754.4" cy="305.4" r="4.0" fill="#e2e8f0" stroke="none" stroke-width="2"/>
<circle cx="746.0" cy="316.2" r="4.0" fill="#1e293b" stroke="#e2e8f0" stroke-width="1.5"/>
<line x1="722.0" y1="354.0" x2="722.0" y2="400.0" stroke="#64748b" stroke-width="6" stroke-linecap="round" stroke-opacity="1.0"/>
<polyline points="712.0,354.0 712.0,372.0 682.0,372.0" fill="none" stroke="#64748b" stroke-width="6" stroke-linecap="round" stroke-linejoin="round"/>
<text x="640.0" y="140.0" font-family="Helvetica, Arial, sans-serif" font-size="22" font-weight="bold" fill="#34d399" text-anchor="middle">disconnecting</text>
<text x="640.0" y="164.2" font-family="Helvetica, Arial, sans-serif" font-size="22" font-weight="bold" fill="#34d399" text-anchor="middle">means</text>
<line x1="690.0" y1="166.0" x2="720.0" y2="296.0" stroke="#94a3b8" stroke-width="2" stroke-linecap="round" stroke-opacity="1.0"/>
<circle cx="720.0" cy="296.0" r="4" fill="#94a3b8" stroke="none" stroke-width="2"/>
<text x="640.0" y="440.0" font-family="Helvetica, Arial, sans-serif" font-size="22" font-weight="bold" fill="#e2e8f0" text-anchor="middle">within sight, and</text>
<text x="640.0" y="476.0" font-family="Helvetica, Arial, sans-serif" font-size="22" font-weight="bold" fill="#34d399" text-anchor="middle">readily accessible</text>
<text x="640.0" y="510.0" font-family="Helvetica, Arial, sans-serif" font-size="20" fill="#94a3b8" text-anchor="middle">(no ladder or obstacles)</text>
<rect x="262.4" y="522.0" width="231.6" height="36.0" rx="8" fill="#1e293b" fill-opacity="1.0" stroke="#64748b" stroke-width="2"/>
<text x="272.4" y="550.0" font-family="Helvetica, Arial, sans-serif" font-size="22" font-weight="bold" fill="#38bdf8" text-anchor="start">NEC 430.102, 440.14</text>
</svg>
