<svg xmlns="http://www.w3.org/2000/svg" width="800" height="540" viewBox="0 0 800 540">
<rect x="0.0" y="0.0" width="800.0" height="540.0" rx="0" fill="#0f172a" fill-opacity="1.0" stroke="none" stroke-width="2"/>
<text x="400.0" y="34.0" font-family="Helvetica, Arial, sans-serif" font-size="24" font-weight="bold" fill="#94a3b8" text-anchor="middle">What must be in sight of the motor and the machine?</text>
<line x1="20.0" y1="420.0" x2="780.0" y2="420.0" stroke="#94a3b8" stroke-width="4" stroke-linecap="round" stroke-opacity="1.0"/>
<rect x="60.0" y="230.0" width="110.0" height="190.0" rx="4" fill="#1e293b" fill-opacity="1.0" stroke="#e2e8f0" stroke-width="3"/>
<rect x="72.0" y="242.0" width="86.0" height="35.0" rx="3" fill="#334155" fill-opacity="1.0" stroke="#64748b" stroke-width="2"/>
<rect x="140.0" y="250.0" width="9.0" height="19.0" rx="2" fill="#64748b" fill-opacity="1.0" stroke="#e2e8f0" stroke-width="1"/>
<rect x="72.0" y="285.0" width="86.0" height="35.0" rx="3" fill="#334155" fill-opacity="1.0" stroke="#64748b" stroke-width="2"/>
<rect x="140.0" y="293.0" width="9.0" height="19.0" rx="2" fill="#64748b" fill-opacity="1.0" stroke="#e2e8f0" stroke-width="1"/>
<rect x="72.0" y="328.0" width="86.0" height="35.0" rx="3" fill="#334155" fill-opacity="1.0" stroke="#64748b" stroke-width="2"/>
<rect x="140.0" y="336.0" width="9.0" height="19.0" rx="2" fill="#64748b" fill-opacity="1.0" stroke="#e2e8f0" stroke-width="1"/>
<rect x="72.0" y="371.0" width="86.0" height="35.0" rx="3" fill="#334155" fill-opacity="1.0" stroke="#64748b" stroke-width="2"/>
<rect x="140.0" y="379.0" width="9.0" height="19.0" rx="2" fill="#64748b" fill-opacity="1.0" stroke="#e2e8f0" stroke-width="1"/>
<text x="115.0" y="196.0" font-family="Helvetica, Arial, sans-serif" font-size="20" font-weight="bold" fill="#e2e8f0" text-anchor="middle">motor control</text>
<text x="115.0" y="218.0" font-family="Helvetica, Arial, sans-serif" font-size="20" font-weight="bold" fill="#e2e8f0" text-anchor="middle">center room</text>
<rect x="211.0" y="110.0" width="18.0" height="310.0" rx="0" fill="#334155" fill-opacity="1.0" stroke="#94a3b8" stroke-width="2"/>
<text x="115.0" y="470.0" font-family="Helvetica, Arial, sans-serif" font-size="20" font-weight="bold" fill="#f87171" text-anchor="middle">out of</text>
<text x="115.0" y="492.0" font-family="Helvetica, Arial, sans-serif" font-size="20" font-weight="bold" fill="#f87171" text-anchor="middle">sight</text>
<rect x="466.4" y="409.0" width="15.1" height="8.0" rx="0" fill="#64748b" fill-opacity="1.0" stroke="#e2e8f0" stroke-width="1.5"/>
<rect x="518.5" y="409.0" width="15.1" height="8.0" rx="0" fill="#64748b" fill-opacity="1.0" stroke="#e2e8f0" stroke-width="1.5"/>
<line x1="459.7" y1="418.5" x2="540.3" y2="418.5" stroke="#94a3b8" stroke-width="3" stroke-linecap="round" stroke-opacity="1.0"/>
<rect x="458.0" y="361.0" width="84.0" height="50.0" rx="11.0" fill="#334155" fill-opacity="1.0" stroke="#e2e8f0" stroke-width="3"/>
<line x1="474.8" y1="369.3" x2="525.2" y2="369.3" stroke="#64748b" stroke-width="2" stroke-linecap="round" stroke-opacity="1.0"/>
<line x1="474.8" y1="377.7" x2="525.2" y2="377.7" stroke="#64748b" stroke-width="2" stroke-linecap="round" stroke-opacity="1.0"/>
<line x1="474.8" y1="386.0" x2="525.2" y2="386.0" stroke="#64748b" stroke-width="2" stroke-linecap="round" stroke-opacity="1.0"/>
<line x1="474.8" y1="394.3" x2="525.2" y2="394.3" stroke="#64748b" stroke-width="2" stroke-linecap="round" stroke-opacity="1.0"/>
<line x1="474.8" y1="402.7" x2="525.2" y2="402.7" stroke="#64748b" stroke-width="2" stroke-linecap="round" stroke-opacity="1.0"/>
<line x1="469.8" y1="365.0" x2="469.8" y2="407.0" stroke="#94a3b8" stroke-width="2" stroke-linecap="round" stroke-opacity="1.0"/>
<line x1="530.2" y1="365.0" x2="530.2" y2="407.0" stroke="#94a3b8" stroke-width="2" stroke-linecap="round" stroke-opacity="1.0"/>
<rect x="542.0" y="381.5" width="18.5" height="9.0" rx="2" fill="#94a3b8" fill-opacity="1.0" stroke="#e2e8f0" stroke-width="1.5"/>
<rect x="486.6" y="349.0" width="26.9" height="13.0" rx="3" fill="#334155" fill-opacity="1.0" stroke="#e2e8f0" stroke-width="2"/>
<text x="500.0" y="395.0" font-family="Helvetica, Arial, sans-serif" font-size="24" font-weight="bold" fill="#e2e8f0" text-anchor="middle">M</text>
<rect x="558.0" y="377.0" width="16.0" height="18.0" rx="2" fill="#64748b" fill-opacity="1.0" stroke="#e2e8f0" stroke-width="1.5"/>
<rect x="582.0" y="408.0" width="40.0" height="12.0" rx="0" fill="#64748b" fill-opacity="1.0" stroke="#e2e8f0" stroke-width="1.5"/>
<rect x="606.0" y="316.0" width="18.0" height="44.0" rx="0" fill="#64748b" fill-opacity="1.0" stroke="#e2e8f0" stroke-width="1.5"/>
<rect x="600.0" y="310.0" width="30.0" height="8.0" rx="2" fill="#64748b" fill-opacity="1.0" stroke="#e2e8f0" stroke-width="1.5"/>
<circle cx="602.0" cy="384.0" r="28" fill="#334155" stroke="#e2e8f0" stroke-width="3"/>
<circle cx="602.0" cy="384.0" r="9" fill="#64748b" stroke="#e2e8f0" stroke-width="1.5"/>
<text x="500.0" y="450.0" font-family="Helvetica, Arial, sans-serif" font-size="20" font-weight="bold" fill="#e2e8f0" text-anchor="middle">motor</text>
<text x="640.0" y="450.0" font-family="Helvetica, Arial, sans-serif" font-size="20" font-weight="bold" fill="#e2e8f0" text-anchor="middle">driven</text>
<text x="640.0" y="471.0" font-family="Helvetica, Arial, sans-serif" font-size="20" font-weight="bold" fill="#e2e8f0" text-anchor="middle">machine</text>
<rect x="320.0" y="236.0" width="48.0" height="64.0" rx="5" fill="#334155" fill-opacity="1.0" stroke="#e2e8f0" stroke-width="4"/>
<rect x="325.0" y="241.0" width="38.0" height="54.0" rx="3" fill="none" fill-opacity="1.0" stroke="#64748b" stroke-width="2"/>
<rect x="340.2" y="293.0" width="7.7" height="11.0" rx="2" fill="#64748b" fill-opacity="1.0" stroke="#e2e8f0" stroke-width="1.5"/>
<rect x="366.0" y="250.1" width="8.0" height="10.2" rx="2" fill="#64748b" fill-opacity="1.0" stroke="#e2e8f0" stroke-width="1.5"/>
<line x1="372.0" y1="255.2" x2="382.5" y2="242.4" stroke="#e2e8f0" stroke-width="5.0" stroke-linecap="round" stroke-opacity="1.0"/>
<circle cx="382.5" cy="242.4" r="4.0" fill="#e2e8f0" stroke="none" stroke-width="2"/>
<circle cx="372.0" cy="255.2" r="4.0" fill="#1e293b" stroke="#e2e8f0" stroke-width="1.5"/>
<line x1="344.0" y1="300.0" x2="344.0" y2="420.0" stroke="#64748b" stroke-width="6" stroke-linecap="round" stroke-opacity="1.0"/>
<text x="380.0" y="150.0" font-family="Helvetica, Arial, sans-serif" font-size="22" font-weight="bold" fill="#34d399" text-anchor="middle">disconnecting</text>
<text x="380.0" y="174.2" font-family="Helvetica, Arial, sans-serif" font-size="22" font-weight="bold" fill="#34d399" text-anchor="middle">means</text>
<line x1="370.0" y1="176.0" x2="346.0" y2="232.0" stroke="#94a3b8" stroke-width="2" stroke-linecap="round" stroke-opacity="1.0"/>
<circle cx="346.0" cy="232.0" r="4" fill="#94a3b8" stroke="none" stroke-width="2"/>
<line x1="388.0" y1="276.0" x2="393.0" y2="279.4" stroke="#38bdf8" stroke-width="2" stroke-linecap="round" stroke-opacity="1.0"/>
<line x1="397.1" y1="282.2" x2="402.1" y2="285.5" stroke="#38bdf8" stroke-width="2" stroke-linecap="round" stroke-opacity="1.0"/>
<line x1="406.2" y1="288.4" x2="411.2" y2="291.7" stroke="#38bdf8" stroke-width="2" stroke-linecap="round" stroke-opacity="1.0"/>
<line x1="415.3" y1="294.5" x2="420.3" y2="297.9" stroke="#38bdf8" stroke-width="2" stroke-linecap="round" stroke-opacity="1.0"/>
<line x1="424.4" y1="300.7" x2="429.4" y2="304.1" stroke="#38bdf8" stroke-width="2" stroke-linecap="round" stroke-opacity="1.0"/>
<line x1="433.5" y1="306.9" x2="438.5" y2="310.3" stroke="#38bdf8" stroke-width="2" stroke-linecap="round" stroke-opacity="1.0"/>
<line x1="442.6" y1="313.1" x2="447.6" y2="316.4" stroke="#38bdf8" stroke-width="2" stroke-linecap="round" stroke-opacity="1.0"/>
<line x1="451.7" y1="319.2" x2="456.7" y2="322.6" stroke="#38bdf8" stroke-width="2" stroke-linecap="round" stroke-opacity="1.0"/>
<line x1="460.8" y1="325.4" x2="465.8" y2="328.8" stroke="#38bdf8" stroke-width="2" stroke-linecap="round" stroke-opacity="1.0"/>
<line x1="469.9" y1="331.6" x2="474.9" y2="335.0" stroke="#38bdf8" stroke-width="2" stroke-linecap="round" stroke-opacity="1.0"/>
<line x1="479.0" y1="337.8" x2="484.0" y2="341.1" stroke="#38bdf8" stroke-width="2" stroke-linecap="round" stroke-opacity="1.0"/>
<line x1="488.1" y1="343.9" x2="493.1" y2="347.3" stroke="#38bdf8" stroke-width="2" stroke-linecap="round" stroke-opacity="1.0"/>
<line x1="497.2" y1="350.1" x2="500.0" y2="352.0" stroke="#38bdf8" stroke-width="2" stroke-linecap="round" stroke-opacity="1.0"/>
<line x1="388.0" y1="276.0" x2="393.8" y2="277.3" stroke="#38bdf8" stroke-width="2" stroke-linecap="round" stroke-opacity="1.0"/>
<line x1="398.7" y1="278.5" x2="404.6" y2="279.8" stroke="#38bdf8" stroke-width="2" stroke-linecap="round" stroke-opacity="1.0"/>
<line x1="409.4" y1="280.9" x2="415.3" y2="282.3" stroke="#38bdf8" stroke-width="2" stroke-linecap="round" stroke-opacity="1.0"/>
<line x1="420.2" y1="283.4" x2="426.0" y2="284.7" stroke="#38bdf8" stroke-width="2" stroke-linecap="round" stroke-opacity="1.0"/>
<line x1="430.9" y1="285.8" x2="436.7" y2="287.2" stroke="#38bdf8" stroke-width="2" stroke-linecap="round" stroke-opacity="1.0"/>
<line x1="441.6" y1="288.3" x2="447.5" y2="289.6" stroke="#38bdf8" stroke-width="2" stroke-linecap="round" stroke-opacity="1.0"/>
<line x1="452.3" y1="290.8" x2="458.2" y2="292.1" stroke="#38bdf8" stroke-width="2" stroke-linecap="round" stroke-opacity="1.0"/>
<line x1="463.1" y1="293.2" x2="468.9" y2="294.6" stroke="#38bdf8" stroke-width="2" stroke-linecap="round" stroke-opacity="1.0"/>
<line x1="473.8" y1="295.7" x2="479.6" y2="297.0" stroke="#38bdf8" stroke-width="2" stroke-linecap="round" stroke-opacity="1.0"/>
<line x1="484.5" y1="298.1" x2="490.3" y2="299.5" stroke="#38bdf8" stroke-width="2" stroke-linecap="round" stroke-opacity="1.0"/>
<line x1="495.2" y1="300.6" x2="501.1" y2="301.9" stroke="#38bdf8" stroke-width="2" stroke-linecap="round" stroke-opacity="1.0"/>
<line x1="505.9" y1="303.0" x2="511.8" y2="304.4" stroke="#38bdf8" stroke-width="2" stroke-linecap="round" stroke-opacity="1.0"/>
<line x1="516.7" y1="305.5" x2="522.5" y2="306.9" stroke="#38bdf8" stroke-width="2" stroke-linecap="round" stroke-opacity="1.0"/>
<line x1="527.4" y1="308.0" x2="533.2" y2="309.3" stroke="#38bdf8" stroke-width="2" stroke-linecap="round" stroke-opacity="1.0"/>
<line x1="538.1" y1="310.4" x2="544.0" y2="311.8" stroke="#38bdf8" stroke-width="2" stroke-linecap="round" stroke-opacity="1.0"/>
<line x1="548.8" y1="312.9" x2="554.7" y2="314.2" stroke="#38bdf8" stroke-width="2" stroke-linecap="round" stroke-opacity="1.0"/>
<line x1="559.5" y1="315.3" x2="565.4" y2="316.7" stroke="#38bdf8" stroke-width="2" stroke-linecap="round" stroke-opacity="1.0"/>
<line x1="570.3" y1="317.8" x2="576.1" y2="319.1" stroke="#38bdf8" stroke-width="2" stroke-linecap="round" stroke-opacity="1.0"/>
<line x1="581.0" y1="320.3" x2="586.8" y2="321.6" stroke="#38bdf8" stroke-width="2" stroke-linecap="round" stroke-opacity="1.0"/>
<line x1="591.7" y1="322.7" x2="597.6" y2="324.1" stroke="#38bdf8" stroke-width="2" stroke-linecap="round" stroke-opacity="1.0"/>
<line x1="602.4" y1="325.2" x2="606.0" y2="326.0" stroke="#38bdf8" stroke-width="2" stroke-linecap="round" stroke-opacity="1.0"/>
<text x="560.0" y="250.0" font-family="Helvetica, Arial, sans-serif" font-size="20" font-weight="bold" fill="#38bdf8" text-anchor="middle">in sight: visible and</text>
<text x="560.0" y="273.0" font-family="Helvetica, Arial, sans-serif" font-size="20" font-weight="bold" fill="#38bdf8" text-anchor="middle">not more than 50 ft</text>
<rect x="603.4" y="502.0" width="182.6" height="36.0" rx="8" fill="#1e293b" fill-opacity="1.0" stroke="#64748b" stroke-width="2"/>
<text x="613.4" y="530.0" font-family="Helvetica, Arial, sans-serif" font-size="22" font-weight="bold" fill="#38bdf8" text-anchor="start">NEC 430.102(B)</text>
</svg>
