<svg xmlns="http://www.w3.org/2000/svg" width="800" height="450" viewBox="0 0 800 450">
<rect x="0.0" y="0.0" width="800.0" height="450.0" rx="0" fill="#0f172a" fill-opacity="1.0" stroke="none" stroke-width="2"/>
<line x1="20.0" y1="400.0" x2="780.0" y2="400.0" stroke="#94a3b8" stroke-width="4" stroke-linecap="round" stroke-opacity="1.0"/>
<line x1="40.0" y1="70.0" x2="40.0" y2="400.0" stroke="#94a3b8" stroke-width="4" stroke-linecap="round" stroke-opacity="1.0"/>
<text x="56.0" y="60.0" font-family="Helvetica, Arial, sans-serif" font-size="22" fill="#94a3b8" text-anchor="start">wall (elevation)</text>
<rect x="60.0" y="350.0" width="700.0" height="50.0" rx="0" fill="#f87171" fill-opacity="0.12" stroke="#f87171" stroke-width="2"/>
<line x1="60.0" y1="370.0" x2="80.0" y2="350.0" stroke="#f87171" stroke-width="1" stroke-linecap="round" stroke-opacity="1.0"/>
<line x1="60.0" y1="390.0" x2="100.0" y2="350.0" stroke="#f87171" stroke-width="1" stroke-linecap="round" stroke-opacity="1.0"/>
<line x1="70.0" y1="400.0" x2="120.0" y2="350.0" stroke="#f87171" stroke-width="1" stroke-linecap="round" stroke-opacity="1.0"/>
<line x1="90.0" y1="400.0" x2="140.0" y2="350.0" stroke="#f87171" stroke-width="1" stroke-linecap="round" stroke-opacity="1.0"/>
<line x1="110.0" y1="400.0" x2="160.0" y2="350.0" stroke="#f87171" stroke-width="1" stroke-linecap="round" stroke-opacity="1.0"/>
<line x1="130.0" y1="400.0" x2="180.0" y2="350.0" stroke="#f87171" stroke-width="1" stroke-linecap="round" stroke-opacity="1.0"/>
<line x1="150.0" y1="400.0" x2="200.0" y2="350.0" stroke="#f87171" stroke-width="1" stroke-linecap="round" stroke-opacity="1.0"/>
<line x1="170.0" y1="400.0" x2="220.0" y2="350.0" stroke="#f87171" stroke-width="1" stroke-linecap="round" stroke-opacity="1.0"/>
<line x1="190.0" y1="400.0" x2="240.0" y2="350.0" stroke="#f87171" stroke-width="1" stroke-linecap="round" stroke-opacity="1.0"/>
<line x1="210.0" y1="400.0" x2="260.0" y2="350.0" stroke="#f87171" stroke-width="1" stroke-linecap="round" stroke-opacity="1.0"/>
<line x1="230.0" y1="400.0" x2="280.0" y2="350.0" stroke="#f87171" stroke-width="1" stroke-linecap="round" stroke-opacity="1.0"/>
<line x1="250.0" y1="400.0" x2="300.0" y2="350.0" stroke="#f87171" stroke-width="1" stroke-linecap="round" stroke-opacity="1.0"/>
<line x1="270.0" y1="400.0" x2="320.0" y2="350.0" stroke="#f87171" stroke-width="1" stroke-linecap="round" stroke-opacity="1.0"/>
<line x1="290.0" y1="400.0" x2="340.0" y2="350.0" stroke="#f87171" stroke-width="1" stroke-linecap="round" stroke-opacity="1.0"/>
<line x1="310.0" y1="400.0" x2="360.0" y2="350.0" stroke="#f87171" stroke-width="1" stroke-linecap="round" stroke-opacity="1.0"/>
<line x1="330.0" y1="400.0" x2="380.0" y2="350.0" stroke="#f87171" stroke-width="1" stroke-linecap="round" stroke-opacity="1.0"/>
<line x1="350.0" y1="400.0" x2="400.0" y2="350.0" stroke="#f87171" stroke-width="1" stroke-linecap="round" stroke-opacity="1.0"/>
<line x1="370.0" y1="400.0" x2="420.0" y2="350.0" stroke="#f87171" stroke-width="1" stroke-linecap="round" stroke-opacity="1.0"/>
<line x1="390.0" y1="400.0" x2="440.0" y2="350.0" stroke="#f87171" stroke-width="1" stroke-linecap="round" stroke-opacity="1.0"/>
<line x1="410.0" y1="400.0" x2="460.0" y2="350.0" stroke="#f87171" stroke-width="1" stroke-linecap="round" stroke-opacity="1.0"/>
<line x1="430.0" y1="400.0" x2="480.0" y2="350.0" stroke="#f87171" stroke-width="1" stroke-linecap="round" stroke-opacity="1.0"/>
<line x1="450.0" y1="400.0" x2="500.0" y2="350.0" stroke="#f87171" stroke-width="1" stroke-linecap="round" stroke-opacity="1.0"/>
<line x1="470.0" y1="400.0" x2="520.0" y2="350.0" stroke="#f87171" stroke-width="1" stroke-linecap="round" stroke-opacity="1.0"/>
<line x1="490.0" y1="400.0" x2="540.0" y2="350.0" stroke="#f87171" stroke-width="1" stroke-linecap="round" stroke-opacity="1.0"/>
<line x1="510.0" y1="400.0" x2="560.0" y2="350.0" stroke="#f87171" stroke-width="1" stroke-linecap="round" stroke-opacity="1.0"/>
<line x1="530.0" y1="400.0" x2="580.0" y2="350.0" stroke="#f87171" stroke-width="1" stroke-linecap="round" stroke-opacity="1.0"/>
<line x1="550.0" y1="400.0" x2="600.0" y2="350.0" stroke="#f87171" stroke-width="1" stroke-linecap="round" stroke-opacity="1.0"/>
<line x1="570.0" y1="400.0" x2="620.0" y2="350.0" stroke="#f87171" stroke-width="1" stroke-linecap="round" stroke-opacity="1.0"/>
<line x1="590.0" y1="400.0" x2="640.0" y2="350.0" stroke="#f87171" stroke-width="1" stroke-linecap="round" stroke-opacity="1.0"/>
<line x1="610.0" y1="400.0" x2="660.0" y2="350.0" stroke="#f87171" stroke-width="1" stroke-linecap="round" stroke-opacity="1.0"/>
<line x1="630.0" y1="400.0" x2="680.0" y2="350.0" stroke="#f87171" stroke-width="1" stroke-linecap="round" stroke-opacity="1.0"/>
<line x1="650.0" y1="400.0" x2="700.0" y2="350.0" stroke="#f87171" stroke-width="1" stroke-linecap="round" stroke-opacity="1.0"/>
<line x1="670.0" y1="400.0" x2="720.0" y2="350.0" stroke="#f87171" stroke-width="1" stroke-linecap="round" stroke-opacity="1.0"/>
<line x1="690.0" y1="400.0" x2="740.0" y2="350.0" stroke="#f87171" stroke-width="1" stroke-linecap="round" stroke-opacity="1.0"/>
<line x1="710.0" y1="400.0" x2="760.0" y2="350.0" stroke="#f87171" stroke-width="1" stroke-linecap="round" stroke-opacity="1.0"/>
<line x1="730.0" y1="400.0" x2="760.0" y2="370.0" stroke="#f87171" stroke-width="1" stroke-linecap="round" stroke-opacity="1.0"/>
<line x1="750.0" y1="400.0" x2="760.0" y2="390.0" stroke="#f87171" stroke-width="1" stroke-linecap="round" stroke-opacity="1.0"/>
<rect x="144.0" y="185.0" width="32.0" height="50.0" rx="6" fill="#334155" fill-opacity="1.0" stroke="#e2e8f0" stroke-width="3"/>
<line x1="155.0" y1="195.0" x2="155.0" y2="203.0" stroke="#e2e8f0" stroke-width="3" stroke-linecap="round" stroke-opacity="1.0"/>
<line x1="165.0" y1="195.0" x2="165.0" y2="203.0" stroke="#e2e8f0" stroke-width="3" stroke-linecap="round" stroke-opacity="1.0"/>
<line x1="155.0" y1="217.0" x2="155.0" y2="225.0" stroke="#e2e8f0" stroke-width="3" stroke-linecap="round" stroke-opacity="1.0"/>
<line x1="165.0" y1="217.0" x2="165.0" y2="225.0" stroke="#e2e8f0" stroke-width="3" stroke-linecap="round" stroke-opacity="1.0"/>
<text x="160.0" y="160.0" font-family="Helvetica, Arial, sans-serif" font-size="22" font-weight="bold" fill="#e2e8f0" text-anchor="middle">existing outlet</text>
<rect x="146.0" y="236.0" width="28.0" height="82.0" rx="4" fill="#334155" fill-opacity="1.0" stroke="#e2e8f0" stroke-width="2"/>
<rect x="146.0" y="304.0" width="560.0" height="28.0" rx="4" fill="#334155" fill-opacity="1.0" stroke="#e2e8f0" stroke-width="2"/>
<rect x="705.3" y="265.0" width="29.4" height="46.0" rx="6" fill="#334155" fill-opacity="1.0" stroke="#e2e8f0" stroke-width="3"/>
<line x1="715.4" y1="273.9" x2="715.4" y2="281.9" stroke="#e2e8f0" stroke-width="3" stroke-linecap="round" stroke-opacity="1.0"/>
<line x1="724.6" y1="273.9" x2="724.6" y2="281.9" stroke="#e2e8f0" stroke-width="3" stroke-linecap="round" stroke-opacity="1.0"/>
<line x1="715.4" y1="294.1" x2="715.4" y2="302.1" stroke="#e2e8f0" stroke-width="3" stroke-linecap="round" stroke-opacity="1.0"/>
<line x1="724.6" y1="294.1" x2="724.6" y2="302.1" stroke="#e2e8f0" stroke-width="3" stroke-linecap="round" stroke-opacity="1.0"/>
<text x="430.0" y="292.0" font-family="Helvetica, Arial, sans-serif" font-size="24" font-weight="bold" fill="#e2e8f0" text-anchor="middle">nonmetallic surface extension</text>
<circle cx="650.0" cy="282.0" r="16" fill="#34d399" stroke="none" stroke-width="2"/>
<polyline points="642.8,282.0 648.1,288.1 658.0,275.9" fill="none" stroke="#0f172a" stroke-width="5" stroke-linecap="round" stroke-linejoin="round"/>
<circle cx="250.0" cy="375.0" r="15" fill="#f87171" stroke="none" stroke-width="2"/>
<line x1="243.7" y1="368.7" x2="256.3" y2="381.3" stroke="#0f172a" stroke-width="5" stroke-linecap="round" stroke-opacity="1.0"/>
<line x1="243.7" y1="381.3" x2="256.3" y2="368.7" stroke="#0f172a" stroke-width="5" stroke-linecap="round" stroke-opacity="1.0"/>
<text x="280.0" y="383.0" font-family="Helvetica, Arial, sans-serif" font-size="22" font-weight="bold" fill="#f87171" text-anchor="start">not on the floor or in this band</text>
<line x1="600.0" y1="350.0" x2="607.0" y2="350.0" stroke="#38bdf8" stroke-width="2" stroke-linecap="round" stroke-opacity="0.7"/>
<line x1="613.0" y1="350.0" x2="620.0" y2="350.0" stroke="#38bdf8" stroke-width="2" stroke-linecap="round" stroke-opacity="0.7"/>
<line x1="626.0" y1="350.0" x2="633.0" y2="350.0" stroke="#38bdf8" stroke-width="2" stroke-linecap="round" stroke-opacity="0.7"/>
<line x1="639.0" y1="350.0" x2="640.0" y2="350.0" stroke="#38bdf8" stroke-width="2" stroke-linecap="round" stroke-opacity="0.7"/>
<line x1="630.0" y1="356.0" x2="630.0" y2="394.0" stroke="#38bdf8" stroke-width="3" stroke-linecap="round" stroke-opacity="1.0"/>
<polygon points="630.0,350.0 636.0,362.0 624.0,362.0" fill="#38bdf8" fill-opacity="1.0" stroke="none" stroke-width="2"/>
<polygon points="630.0,400.0 624.0,388.0 636.0,388.0" fill="#38bdf8" fill-opacity="1.0" stroke="none" stroke-width="2"/>
<text x="620.0" y="438.0" font-family="Helvetica, Arial, sans-serif" font-size="28" font-weight="bold" fill="#34d399" text-anchor="end">50 mm (2 in)</text>
<rect x="615.6" y="24.0" width="170.4" height="36.0" rx="8" fill="#1e293b" fill-opacity="1.0" stroke="#64748b" stroke-width="2"/>
<text x="625.6" y="52.0" font-family="Helvetica, Arial, sans-serif" font-size="22" font-weight="bold" fill="#38bdf8" text-anchor="start">NEC 382.15(A)</text>
</svg>
