<svg xmlns="http://www.w3.org/2000/svg" width="800" height="450" viewBox="0 0 800 450">
<rect x="0.0" y="0.0" width="800.0" height="450.0" rx="0" fill="#0f172a" fill-opacity="1.0" stroke="none" stroke-width="2"/>
<text x="40.0" y="40.0" font-family="Helvetica, Arial, sans-serif" font-size="24" font-weight="bold" fill="#94a3b8" text-anchor="start">Parallel sets in two raceways</text>
<rect x="30.0" y="150.0" width="80.0" height="150.0" rx="5" fill="#334155" fill-opacity="1.0" stroke="#e2e8f0" stroke-width="3"/>
<circle cx="43.3" cy="164.4" r="9.0" fill="#64748b" stroke="none" stroke-width="2"/>
<circle cx="70.0" cy="164.4" r="9.0" fill="#64748b" stroke="none" stroke-width="2"/>
<circle cx="96.7" cy="164.4" r="9.0" fill="#64748b" stroke="none" stroke-width="2"/>
<circle cx="43.3" cy="285.6" r="9.0" fill="#64748b" stroke="none" stroke-width="2"/>
<circle cx="70.0" cy="285.6" r="9.0" fill="#64748b" stroke="none" stroke-width="2"/>
<circle cx="96.7" cy="285.6" r="9.0" fill="#64748b" stroke="none" stroke-width="2"/>
<rect x="37.7" y="190.5" width="11.2" height="69.0" rx="2" fill="#0f172a" fill-opacity="1.0" stroke="#64748b" stroke-width="1.5"/>
<rect x="39.1" y="194.6" width="8.5" height="31.7" rx="2" fill="#e2e8f0" fill-opacity="1.0" stroke="none" stroke-width="2"/>
<rect x="64.4" y="190.5" width="11.2" height="69.0" rx="2" fill="#0f172a" fill-opacity="1.0" stroke="#64748b" stroke-width="1.5"/>
<rect x="65.7" y="194.6" width="8.5" height="31.7" rx="2" fill="#e2e8f0" fill-opacity="1.0" stroke="none" stroke-width="2"/>
<rect x="91.1" y="190.5" width="11.2" height="69.0" rx="2" fill="#0f172a" fill-opacity="1.0" stroke="#64748b" stroke-width="1.5"/>
<rect x="92.4" y="194.6" width="8.5" height="31.7" rx="2" fill="#e2e8f0" fill-opacity="1.0" stroke="none" stroke-width="2"/>
<line x1="43.3" y1="210.5" x2="96.7" y2="210.5" stroke="#e2e8f0" stroke-width="5.5200000000000005" stroke-linecap="round" stroke-opacity="1.0"/>
<text x="70.0" y="136.0" font-family="Helvetica, Arial, sans-serif" font-size="22" font-weight="bold" fill="#e2e8f0" text-anchor="middle">feeder OCPD</text>
<rect x="400.0" y="150.0" width="90.0" height="150.0" rx="5" fill="#1e293b" fill-opacity="1.0" stroke="#e2e8f0" stroke-width="4"/>
<rect x="406.3" y="156.3" width="77.4" height="137.4" rx="3" fill="#334155" fill-opacity="0.55" stroke="#64748b" stroke-width="2"/>
<circle cx="412.0" cy="162.0" r="2.0" fill="#64748b" stroke="none" stroke-width="2"/>
<circle cx="478.0" cy="162.0" r="2.0" fill="#64748b" stroke="none" stroke-width="2"/>
<circle cx="412.0" cy="288.0" r="2.0" fill="#64748b" stroke="none" stroke-width="2"/>
<circle cx="478.0" cy="288.0" r="2.0" fill="#64748b" stroke="none" stroke-width="2"/>
<rect x="440.5" y="168.2" width="9.0" height="113.7" rx="2" fill="#0f172a" fill-opacity="0.6" stroke="none" stroke-width="2"/>
<rect x="412.6" y="175.3" width="27.0" height="26.3" rx="1.5" fill="#334155" fill-opacity="1.0" stroke="#94a3b8" stroke-width="1.5"/>
<rect x="427.2" y="181.1" width="9.2" height="14.7" rx="1.5" fill="#e2e8f0" fill-opacity="1.0" stroke="none" stroke-width="2"/>
<rect x="450.4" y="175.3" width="27.0" height="26.3" rx="1.5" fill="#334155" fill-opacity="1.0" stroke="#94a3b8" stroke-width="1.5"/>
<rect x="453.6" y="181.1" width="9.2" height="14.7" rx="1.5" fill="#e2e8f0" fill-opacity="1.0" stroke="none" stroke-width="2"/>
<rect x="412.6" y="211.8" width="27.0" height="26.3" rx="1.5" fill="#334155" fill-opacity="1.0" stroke="#94a3b8" stroke-width="1.5"/>
<rect x="427.2" y="217.6" width="9.2" height="14.7" rx="1.5" fill="#e2e8f0" fill-opacity="1.0" stroke="none" stroke-width="2"/>
<rect x="450.4" y="211.8" width="27.0" height="26.3" rx="1.5" fill="#334155" fill-opacity="1.0" stroke="#94a3b8" stroke-width="1.5"/>
<rect x="453.6" y="217.6" width="9.2" height="14.7" rx="1.5" fill="#e2e8f0" fill-opacity="1.0" stroke="none" stroke-width="2"/>
<rect x="412.6" y="248.4" width="27.0" height="26.3" rx="1.5" fill="#334155" fill-opacity="1.0" stroke="#94a3b8" stroke-width="1.5"/>
<rect x="427.2" y="254.2" width="9.2" height="14.7" rx="1.5" fill="#e2e8f0" fill-opacity="1.0" stroke="none" stroke-width="2"/>
<rect x="450.4" y="248.4" width="27.0" height="26.3" rx="1.5" fill="#334155" fill-opacity="1.0" stroke="#94a3b8" stroke-width="1.5"/>
<rect x="453.6" y="254.2" width="9.2" height="14.7" rx="1.5" fill="#e2e8f0" fill-opacity="1.0" stroke="none" stroke-width="2"/>
<text x="445.0" y="136.0" font-family="Helvetica, Arial, sans-serif" font-size="22" font-weight="bold" fill="#e2e8f0" text-anchor="middle">panel</text>
<line x1="110.0" y1="190.0" x2="400.0" y2="190.0" stroke="#94a3b8" stroke-width="30" stroke-linecap="round" stroke-opacity="1.0"/>
<line x1="110.0" y1="190.0" x2="400.0" y2="190.0" stroke="#64748b" stroke-width="26" stroke-linecap="round" stroke-opacity="1.0"/>
<line x1="110.0" y1="184.3" x2="400.0" y2="184.3" stroke="#e2e8f0" stroke-width="2.6" stroke-linecap="round" stroke-opacity="0.35"/>
<text x="255.0" y="168.0" font-family="Helvetica, Arial, sans-serif" font-size="22" font-weight="bold" fill="#94a3b8" text-anchor="middle">raceway 1</text>
<line x1="110.0" y1="262.0" x2="400.0" y2="262.0" stroke="#94a3b8" stroke-width="30" stroke-linecap="round" stroke-opacity="1.0"/>
<line x1="110.0" y1="262.0" x2="400.0" y2="262.0" stroke="#64748b" stroke-width="26" stroke-linecap="round" stroke-opacity="1.0"/>
<line x1="110.0" y1="256.3" x2="400.0" y2="256.3" stroke="#e2e8f0" stroke-width="2.6" stroke-linecap="round" stroke-opacity="0.35"/>
<text x="255.0" y="240.0" font-family="Helvetica, Arial, sans-serif" font-size="22" font-weight="bold" fill="#94a3b8" text-anchor="middle">raceway 2</text>
<text x="255.0" y="350.0" font-family="Helvetica, Arial, sans-serif" font-size="22" fill="#94a3b8" text-anchor="middle">one full set (A, B, C)</text>
<text x="255.0" y="377.5" font-family="Helvetica, Arial, sans-serif" font-size="22" fill="#94a3b8" text-anchor="middle">in each raceway</text>
<text x="655.0" y="110.0" font-family="Helvetica, Arial, sans-serif" font-size="22" font-weight="bold" fill="#94a3b8" text-anchor="middle">section view</text>
<circle cx="590.0" cy="200.0" r="56" fill="#1e293b" stroke="#94a3b8" stroke-width="5"/>
<circle cx="571.0" cy="183.0" r="16" fill="#334155" stroke="#e2e8f0" stroke-width="2"/>
<text x="571.0" y="190.0" font-family="Helvetica, Arial, sans-serif" font-size="20" font-weight="bold" fill="#e2e8f0" text-anchor="middle">A</text>
<circle cx="609.0" cy="183.0" r="16" fill="#334155" stroke="#e2e8f0" stroke-width="2"/>
<text x="609.0" y="190.0" font-family="Helvetica, Arial, sans-serif" font-size="20" font-weight="bold" fill="#e2e8f0" text-anchor="middle">B</text>
<circle cx="571.0" cy="219.0" r="16" fill="#334155" stroke="#e2e8f0" stroke-width="2"/>
<text x="571.0" y="226.0" font-family="Helvetica, Arial, sans-serif" font-size="20" font-weight="bold" fill="#e2e8f0" text-anchor="middle">C</text>
<circle cx="609.0" cy="220.0" r="11" fill="#86efac" stroke="none" stroke-width="2"/>
<text x="590.0" y="290.0" font-family="Helvetica, Arial, sans-serif" font-size="22" font-weight="bold" fill="#e2e8f0" text-anchor="middle">raceway 1</text>
<circle cx="720.0" cy="200.0" r="56" fill="#1e293b" stroke="#94a3b8" stroke-width="5"/>
<circle cx="701.0" cy="183.0" r="16" fill="#334155" stroke="#e2e8f0" stroke-width="2"/>
<text x="701.0" y="190.0" font-family="Helvetica, Arial, sans-serif" font-size="20" font-weight="bold" fill="#e2e8f0" text-anchor="middle">A</text>
<circle cx="739.0" cy="183.0" r="16" fill="#334155" stroke="#e2e8f0" stroke-width="2"/>
<text x="739.0" y="190.0" font-family="Helvetica, Arial, sans-serif" font-size="20" font-weight="bold" fill="#e2e8f0" text-anchor="middle">B</text>
<circle cx="701.0" cy="219.0" r="16" fill="#334155" stroke="#e2e8f0" stroke-width="2"/>
<text x="701.0" y="226.0" font-family="Helvetica, Arial, sans-serif" font-size="20" font-weight="bold" fill="#e2e8f0" text-anchor="middle">C</text>
<circle cx="739.0" cy="220.0" r="11" fill="#86efac" stroke="none" stroke-width="2"/>
<text x="720.0" y="290.0" font-family="Helvetica, Arial, sans-serif" font-size="22" font-weight="bold" fill="#e2e8f0" text-anchor="middle">raceway 2</text>
<text x="655.0" y="336.0" font-family="Helvetica, Arial, sans-serif" font-size="24" font-weight="bold" fill="#34d399" text-anchor="middle">wire-type EGC in each</text>
<text x="655.0" y="364.8" font-family="Helvetica, Arial, sans-serif" font-size="24" font-weight="bold" fill="#34d399" text-anchor="middle">raceway, in parallel</text>
<rect x="579.0" y="410.0" width="207.0" height="36.0" rx="8" fill="#1e293b" fill-opacity="1.0" stroke="#64748b" stroke-width="2"/>
<text x="589.0" y="438.0" font-family="Helvetica, Arial, sans-serif" font-size="22" font-weight="bold" fill="#38bdf8" text-anchor="start">NEC 250.122(F)(1)</text>
</svg>
