<svg xmlns="http://www.w3.org/2000/svg" width="800" height="420" viewBox="0 0 800 420">
<rect x="0.0" y="0.0" width="800.0" height="420.0" rx="0" fill="#0f172a" fill-opacity="1.0" stroke="none" stroke-width="2"/>
<text x="400.0" y="44.0" font-family="Helvetica, Arial, sans-serif" font-size="24" font-weight="bold" fill="#94a3b8" text-anchor="middle">Two equal resistors in parallel</text>
<line x1="250.0" y1="110.0" x2="750.0" y2="110.0" stroke="#e2e8f0" stroke-width="4" stroke-linecap="round" stroke-opacity="1.0"/>
<line x1="250.0" y1="330.0" x2="750.0" y2="330.0" stroke="#e2e8f0" stroke-width="4" stroke-linecap="round" stroke-opacity="1.0"/>
<line x1="400.0" y1="110.0" x2="400.0" y2="154.0" stroke="#e2e8f0" stroke-width="4" stroke-linecap="round" stroke-opacity="1.0"/>
<line x1="400.0" y1="286.0" x2="400.0" y2="330.0" stroke="#e2e8f0" stroke-width="4" stroke-linecap="round" stroke-opacity="1.0"/>
<polyline points="400.0,154.0 416.0,159.5 384.0,170.5 416.0,181.5 384.0,192.5 416.0,203.5 384.0,214.5 416.0,225.5 384.0,236.5 416.0,247.5 384.0,258.5 416.0,269.5 384.0,280.5 400.0,286.0" fill="none" stroke="#e2e8f0" stroke-width="3" stroke-linecap="round" stroke-linejoin="round"/>
<circle cx="400.0" cy="110.0" r="5" fill="#e2e8f0" stroke="none" stroke-width="2"/>
<circle cx="400.0" cy="330.0" r="5" fill="#e2e8f0" stroke="none" stroke-width="2"/>
<text x="430.0" y="208.0" font-family="Helvetica, Arial, sans-serif" font-size="24" font-weight="bold" fill="#e2e8f0" text-anchor="start">R1</text>
<text x="430.0" y="242.0" font-family="Helvetica, Arial, sans-serif" font-size="24" font-weight="bold" fill="#38bdf8" text-anchor="start">2,000 ohm</text>
<line x1="580.0" y1="110.0" x2="580.0" y2="154.0" stroke="#e2e8f0" stroke-width="4" stroke-linecap="round" stroke-opacity="1.0"/>
<line x1="580.0" y1="286.0" x2="580.0" y2="330.0" stroke="#e2e8f0" stroke-width="4" stroke-linecap="round" stroke-opacity="1.0"/>
<polyline points="580.0,154.0 596.0,159.5 564.0,170.5 596.0,181.5 564.0,192.5 596.0,203.5 564.0,214.5 596.0,225.5 564.0,236.5 596.0,247.5 564.0,258.5 596.0,269.5 564.0,280.5 580.0,286.0" fill="none" stroke="#e2e8f0" stroke-width="3" stroke-linecap="round" stroke-linejoin="round"/>
<circle cx="580.0" cy="110.0" r="5" fill="#e2e8f0" stroke="none" stroke-width="2"/>
<circle cx="580.0" cy="330.0" r="5" fill="#e2e8f0" stroke="none" stroke-width="2"/>
<text x="610.0" y="208.0" font-family="Helvetica, Arial, sans-serif" font-size="24" font-weight="bold" fill="#e2e8f0" text-anchor="start">R2</text>
<text x="610.0" y="242.0" font-family="Helvetica, Arial, sans-serif" font-size="24" font-weight="bold" fill="#38bdf8" text-anchor="start">2,000 ohm</text>
<line x1="750.0" y1="110.0" x2="750.0" y2="330.0" stroke="#e2e8f0" stroke-width="4" stroke-linecap="round" stroke-opacity="1.0"/>
<circle cx="250.0" cy="110.0" r="7" fill="#0f172a" stroke="#e2e8f0" stroke-width="3"/>
<circle cx="250.0" cy="330.0" r="7" fill="#0f172a" stroke="#e2e8f0" stroke-width="3"/>
<line x1="242.0" y1="110.0" x2="235.0" y2="110.0" stroke="#38bdf8" stroke-width="2" stroke-linecap="round" stroke-opacity="0.7"/>
<line x1="229.0" y1="110.0" x2="222.0" y2="110.0" stroke="#38bdf8" stroke-width="2" stroke-linecap="round" stroke-opacity="0.7"/>
<line x1="216.0" y1="110.0" x2="209.0" y2="110.0" stroke="#38bdf8" stroke-width="2" stroke-linecap="round" stroke-opacity="0.7"/>
<line x1="203.0" y1="110.0" x2="196.0" y2="110.0" stroke="#38bdf8" stroke-width="2" stroke-linecap="round" stroke-opacity="0.7"/>
<line x1="242.0" y1="330.0" x2="235.0" y2="330.0" stroke="#38bdf8" stroke-width="2" stroke-linecap="round" stroke-opacity="0.7"/>
<line x1="229.0" y1="330.0" x2="222.0" y2="330.0" stroke="#38bdf8" stroke-width="2" stroke-linecap="round" stroke-opacity="0.7"/>
<line x1="216.0" y1="330.0" x2="209.0" y2="330.0" stroke="#38bdf8" stroke-width="2" stroke-linecap="round" stroke-opacity="0.7"/>
<line x1="203.0" y1="330.0" x2="196.0" y2="330.0" stroke="#38bdf8" stroke-width="2" stroke-linecap="round" stroke-opacity="0.7"/>
<line x1="210.0" y1="116.0" x2="210.0" y2="324.0" stroke="#38bdf8" stroke-width="3" stroke-linecap="round" stroke-opacity="1.0"/>
<polygon points="210.0,110.0 216.0,122.0 204.0,122.0" fill="#38bdf8" fill-opacity="1.0" stroke="none" stroke-width="2"/>
<polygon points="210.0,330.0 204.0,318.0 216.0,318.0" fill="#38bdf8" fill-opacity="1.0" stroke="none" stroke-width="2"/>
<text x="104.0" y="196.0" font-family="Helvetica, Arial, sans-serif" font-size="22" font-weight="bold" fill="#94a3b8" text-anchor="middle">total</text>
<text x="104.0" y="223.5" font-family="Helvetica, Arial, sans-serif" font-size="22" font-weight="bold" fill="#94a3b8" text-anchor="middle">R_T</text>
<text x="104.0" y="262.0" font-family="Helvetica, Arial, sans-serif" font-size="26" font-weight="bold" fill="#34d399" text-anchor="middle">1,000 ohm</text>
<text x="450.0" y="390.0" font-family="Helvetica, Arial, sans-serif" font-size="22" font-weight="bold" fill="#34d399" text-anchor="middle">equal resistors: R_T = R / N = 2,000 / 2</text>
</svg>
