<svg xmlns="http://www.w3.org/2000/svg" width="800" height="580" viewBox="0 0 800 580">
<rect x="0.0" y="0.0" width="800.0" height="580.0" rx="0" fill="#0f172a" fill-opacity="1.0" stroke="none" stroke-width="2"/>
<text x="400.0" y="30.0" font-family="Helvetica, Arial, sans-serif" font-size="24" font-weight="bold" fill="#94a3b8" text-anchor="middle">Service panel, cover off</text>
<rect x="602.2" y="14.0" width="183.8" height="36.0" rx="8" fill="#1e293b" fill-opacity="1.0" stroke="#64748b" stroke-width="2"/>
<text x="612.2" y="42.0" font-family="Helvetica, Arial, sans-serif" font-size="22" font-weight="bold" fill="#38bdf8" text-anchor="start">NEC Article 100</text>
<rect x="75.5" y="163.5" width="69.0" height="93.0" rx="10.5" fill="#334155" fill-opacity="1.0" stroke="#e2e8f0" stroke-width="3"/>
<circle cx="110.0" cy="210.0" r="33.0" fill="#64748b" stroke="#e2e8f0" stroke-width="2"/>
<circle cx="110.0" cy="210.0" r="30" fill="#0f172a" stroke="#94a3b8" stroke-width="2"/>
<rect x="93.5" y="195.6" width="33.0" height="10.2" rx="1.5" fill="#1e293b" fill-opacity="1.0" stroke="#94a3b8" stroke-width="1"/>
<line x1="91.4" y1="219.6" x2="128.6" y2="219.6" stroke="#94a3b8" stroke-width="2.4" stroke-linecap="round" stroke-opacity="1.0"/>
<line x1="110.0" y1="219.6" x2="119.0" y2="211.5" stroke="#fbbf24" stroke-width="2.1" stroke-linecap="round" stroke-opacity="1.0"/>
<text x="110.0" y="284.0" font-family="Helvetica, Arial, sans-serif" font-size="22" fill="#94a3b8" text-anchor="middle">meter</text>
<polyline points="96.0,163.0 96.0,56.0 529.0,56.0 529.0,236.0" fill="none" stroke="#cbd5e1" stroke-width="4" stroke-linecap="round" stroke-linejoin="round"/>
<polyline points="110.0,163.0 110.0,70.0 427.5,70.0 427.5,118.0" fill="none" stroke="#e2e8f0" stroke-width="4" stroke-linecap="round" stroke-linejoin="round"/>
<polyline points="124.0,163.0 124.0,84.0 372.5,84.0 372.5,118.0" fill="none" stroke="#e2e8f0" stroke-width="4" stroke-linecap="round" stroke-linejoin="round"/>
<rect x="250.0" y="96.0" width="300.0" height="400.0" rx="6" fill="#1e293b" fill-opacity="1.0" stroke="#e2e8f0" stroke-width="4"/>
<line x1="529.0" y1="92.0" x2="529.0" y2="236.0" stroke="#cbd5e1" stroke-width="4" stroke-linecap="round" stroke-opacity="1.0"/>
<line x1="372.5" y1="92.0" x2="372.5" y2="118.0" stroke="#e2e8f0" stroke-width="4" stroke-linecap="round" stroke-opacity="1.0"/>
<line x1="427.5" y1="92.0" x2="427.5" y2="118.0" stroke="#e2e8f0" stroke-width="4" stroke-linecap="round" stroke-opacity="1.0"/>
<rect x="345.0" y="110.0" width="110.0" height="86.0" rx="5" fill="#334155" fill-opacity="1.0" stroke="#e2e8f0" stroke-width="3"/>
<circle cx="372.5" cy="118.3" r="5.16" fill="#64748b" stroke="none" stroke-width="2"/>
<circle cx="427.5" cy="118.3" r="5.16" fill="#64748b" stroke="none" stroke-width="2"/>
<circle cx="372.5" cy="187.7" r="5.16" fill="#64748b" stroke="none" stroke-width="2"/>
<circle cx="427.5" cy="187.7" r="5.16" fill="#64748b" stroke="none" stroke-width="2"/>
<rect x="360.9" y="133.2" width="23.1" height="39.6" rx="2" fill="#0f172a" fill-opacity="1.0" stroke="#64748b" stroke-width="1.5"/>
<rect x="363.7" y="135.6" width="17.6" height="18.2" rx="2" fill="#e2e8f0" fill-opacity="1.0" stroke="none" stroke-width="2"/>
<rect x="415.9" y="133.2" width="23.1" height="39.6" rx="2" fill="#0f172a" fill-opacity="1.0" stroke="#64748b" stroke-width="1.5"/>
<rect x="418.7" y="135.6" width="17.6" height="18.2" rx="2" fill="#e2e8f0" fill-opacity="1.0" stroke="none" stroke-width="2"/>
<line x1="372.5" y1="144.7" x2="427.5" y2="144.7" stroke="#e2e8f0" stroke-width="3.1648" stroke-linecap="round" stroke-opacity="1.0"/>
<text x="335.0" y="160.0" font-family="Helvetica, Arial, sans-serif" font-size="22" fill="#94a3b8" text-anchor="end">main</text>
<rect x="366.5" y="192.0" width="12.0" height="228.0" rx="2" fill="#64748b" fill-opacity="1.0" stroke="#94a3b8" stroke-width="1.5"/>
<rect x="421.5" y="192.0" width="12.0" height="228.0" rx="2" fill="#64748b" fill-opacity="1.0" stroke="#94a3b8" stroke-width="1.5"/>
<rect x="300.0" y="214.0" width="66.0" height="28.0" rx="1.5" fill="#334155" fill-opacity="1.0" stroke="#94a3b8" stroke-width="1.5"/>
<rect x="335.6" y="220.2" width="22.4" height="15.7" rx="1.5" fill="#e2e8f0" fill-opacity="1.0" stroke="none" stroke-width="2"/>
<rect x="434.0" y="214.0" width="66.0" height="28.0" rx="1.5" fill="#334155" fill-opacity="1.0" stroke="#94a3b8" stroke-width="1.5"/>
<rect x="441.9" y="220.2" width="22.4" height="15.7" rx="1.5" fill="#e2e8f0" fill-opacity="1.0" stroke="none" stroke-width="2"/>
<rect x="300.0" y="254.0" width="66.0" height="28.0" rx="1.5" fill="#334155" fill-opacity="1.0" stroke="#94a3b8" stroke-width="1.5"/>
<rect x="335.6" y="260.2" width="22.4" height="15.7" rx="1.5" fill="#e2e8f0" fill-opacity="1.0" stroke="none" stroke-width="2"/>
<rect x="434.0" y="254.0" width="66.0" height="28.0" rx="1.5" fill="#334155" fill-opacity="1.0" stroke="#94a3b8" stroke-width="1.5"/>
<rect x="441.9" y="260.2" width="22.4" height="15.7" rx="1.5" fill="#e2e8f0" fill-opacity="1.0" stroke="none" stroke-width="2"/>
<rect x="300.0" y="294.0" width="66.0" height="28.0" rx="1.5" fill="#334155" fill-opacity="1.0" stroke="#94a3b8" stroke-width="1.5"/>
<rect x="335.6" y="300.2" width="22.4" height="15.7" rx="1.5" fill="#e2e8f0" fill-opacity="1.0" stroke="none" stroke-width="2"/>
<rect x="434.0" y="294.0" width="66.0" height="28.0" rx="1.5" fill="#334155" fill-opacity="1.0" stroke="#94a3b8" stroke-width="1.5"/>
<rect x="441.9" y="300.2" width="22.4" height="15.7" rx="1.5" fill="#e2e8f0" fill-opacity="1.0" stroke="none" stroke-width="2"/>
<rect x="300.0" y="334.0" width="66.0" height="28.0" rx="1.5" fill="#334155" fill-opacity="1.0" stroke="#94a3b8" stroke-width="1.5"/>
<rect x="335.6" y="340.2" width="22.4" height="15.7" rx="1.5" fill="#e2e8f0" fill-opacity="1.0" stroke="none" stroke-width="2"/>
<rect x="434.0" y="334.0" width="66.0" height="28.0" rx="1.5" fill="#334155" fill-opacity="1.0" stroke="#94a3b8" stroke-width="1.5"/>
<rect x="441.9" y="340.2" width="22.4" height="15.7" rx="1.5" fill="#e2e8f0" fill-opacity="1.0" stroke="none" stroke-width="2"/>
<rect x="300.0" y="374.0" width="66.0" height="28.0" rx="1.5" fill="#334155" fill-opacity="1.0" stroke="#94a3b8" stroke-width="1.5"/>
<rect x="335.6" y="380.2" width="22.4" height="15.7" rx="1.5" fill="#e2e8f0" fill-opacity="1.0" stroke="none" stroke-width="2"/>
<rect x="434.0" y="374.0" width="66.0" height="28.0" rx="1.5" fill="#334155" fill-opacity="1.0" stroke="#94a3b8" stroke-width="1.5"/>
<rect x="441.9" y="380.2" width="22.4" height="15.7" rx="1.5" fill="#e2e8f0" fill-opacity="1.0" stroke="none" stroke-width="2"/>
<rect x="262.0" y="236.0" width="18.0" height="170.0" rx="3" fill="#86efac" fill-opacity="1.0" stroke="#e2e8f0" stroke-width="1.5"/>
<circle cx="271.0" cy="250.0" r="4.5" fill="#1e293b" stroke="#64748b" stroke-width="1"/>
<circle cx="271.0" cy="272.0" r="4.5" fill="#1e293b" stroke="#64748b" stroke-width="1"/>
<circle cx="271.0" cy="294.0" r="4.5" fill="#1e293b" stroke="#64748b" stroke-width="1"/>
<circle cx="271.0" cy="316.0" r="4.5" fill="#1e293b" stroke="#64748b" stroke-width="1"/>
<circle cx="271.0" cy="338.0" r="4.5" fill="#1e293b" stroke="#64748b" stroke-width="1"/>
<circle cx="271.0" cy="360.0" r="4.5" fill="#1e293b" stroke="#64748b" stroke-width="1"/>
<circle cx="271.0" cy="382.0" r="4.5" fill="#1e293b" stroke="#64748b" stroke-width="1"/>
<rect x="520.0" y="236.0" width="18.0" height="170.0" rx="3" fill="#cbd5e1" fill-opacity="1.0" stroke="#e2e8f0" stroke-width="1.5"/>
<circle cx="529.0" cy="250.0" r="4.5" fill="#1e293b" stroke="#64748b" stroke-width="1"/>
<circle cx="529.0" cy="272.0" r="4.5" fill="#1e293b" stroke="#64748b" stroke-width="1"/>
<circle cx="529.0" cy="294.0" r="4.5" fill="#1e293b" stroke="#64748b" stroke-width="1"/>
<circle cx="529.0" cy="316.0" r="4.5" fill="#1e293b" stroke="#64748b" stroke-width="1"/>
<circle cx="529.0" cy="338.0" r="4.5" fill="#1e293b" stroke="#64748b" stroke-width="1"/>
<circle cx="529.0" cy="360.0" r="4.5" fill="#1e293b" stroke="#64748b" stroke-width="1"/>
<circle cx="529.0" cy="382.0" r="4.5" fill="#1e293b" stroke="#64748b" stroke-width="1"/>
<text x="238.0" y="338.0" font-family="Helvetica, Arial, sans-serif" font-size="22" font-weight="bold" fill="#e2e8f0" text-anchor="end">ground bar</text>
<line x1="240.0" y1="330.0" x2="266.0" y2="330.0" stroke="#94a3b8" stroke-width="2" stroke-linecap="round" stroke-opacity="1.0"/>
<circle cx="266.0" cy="330.0" r="4" fill="#94a3b8" stroke="none" stroke-width="2"/>
<text x="562.0" y="338.0" font-family="Helvetica, Arial, sans-serif" font-size="22" font-weight="bold" fill="#e2e8f0" text-anchor="start">neutral bar</text>
<line x1="560.0" y1="330.0" x2="534.0" y2="330.0" stroke="#94a3b8" stroke-width="2" stroke-linecap="round" stroke-opacity="1.0"/>
<circle cx="534.0" cy="330.0" r="4" fill="#94a3b8" stroke="none" stroke-width="2"/>
<polyline points="529.0,406.0 529.0,446.0 271.0,446.0 271.0,406.0" fill="none" stroke="#fbbf24" stroke-width="8" stroke-linecap="round" stroke-linejoin="round"/>
<text x="400.0" y="480.0" font-family="Helvetica, Arial, sans-serif" font-size="22" font-weight="bold" fill="#34d399" text-anchor="middle">MAIN BONDING JUMPER</text>
<rect x="570.0" y="524.0" width="210.0" height="56.0" rx="0" fill="#3f2e1f" fill-opacity="0.75" stroke="none" stroke-width="2"/>
<circle cx="582.0" cy="542.0" r="3" fill="#78593a" stroke="none" stroke-width="2"/>
<circle cx="610.0" cy="564.0" r="3" fill="#78593a" stroke="none" stroke-width="2"/>
<circle cx="638.0" cy="560.0" r="3" fill="#78593a" stroke="none" stroke-width="2"/>
<circle cx="666.0" cy="556.0" r="3" fill="#78593a" stroke="none" stroke-width="2"/>
<circle cx="694.0" cy="552.0" r="3" fill="#78593a" stroke="none" stroke-width="2"/>
<circle cx="722.0" cy="548.0" r="3" fill="#78593a" stroke="none" stroke-width="2"/>
<circle cx="750.0" cy="544.0" r="3" fill="#78593a" stroke="none" stroke-width="2"/>
<circle cx="778.0" cy="566.0" r="3" fill="#78593a" stroke="none" stroke-width="2"/>
<line x1="570.0" y1="524.0" x2="780.0" y2="524.0" stroke="#94a3b8" stroke-width="4" stroke-linecap="round" stroke-opacity="1.0"/>
<polyline points="538.0,384.0 610.0,384.0 610.0,532.0" fill="none" stroke="#86efac" stroke-width="5" stroke-linecap="round" stroke-linejoin="round"/>
<line x1="610.0" y1="524.0" x2="610.0" y2="560.0" stroke="#b45309" stroke-width="9" stroke-linecap="round" stroke-opacity="1.0"/>
<polygon points="605.0,560.0 615.0,560.0 610.0,572.0" fill="#b45309" fill-opacity="1.0" stroke="none" stroke-width="2"/>
<rect x="602.0" y="523.4" width="16.0" height="12.0" rx="3" fill="#ca8a04" fill-opacity="1.0" stroke="#e2e8f0" stroke-width="1.5"/>
<line x1="618.0" y1="529.4" x2="623.0" y2="529.4" stroke="#e2e8f0" stroke-width="3" stroke-linecap="round" stroke-opacity="1.0"/>
<text x="626.0" y="420.0" font-family="Helvetica, Arial, sans-serif" font-size="22" font-weight="bold" fill="#34d399" text-anchor="start">GROUNDING</text>
<text x="626.0" y="446.4" font-family="Helvetica, Arial, sans-serif" font-size="22" font-weight="bold" fill="#34d399" text-anchor="start">ELECTRODE</text>
<text x="626.0" y="472.8" font-family="Helvetica, Arial, sans-serif" font-size="22" font-weight="bold" fill="#34d399" text-anchor="start">CONDUCTOR</text>
<text x="570.0" y="554.0" font-family="Helvetica, Arial, sans-serif" font-size="22" fill="#94a3b8" text-anchor="end">ground rod</text>
<line x1="576.0" y1="546.0" x2="604.0" y2="546.0" stroke="#94a3b8" stroke-width="2" stroke-linecap="round" stroke-opacity="1.0"/>
<circle cx="604.0" cy="546.0" r="4" fill="#94a3b8" stroke="none" stroke-width="2"/>
</svg>
