<svg xmlns="http://www.w3.org/2000/svg" width="800" height="420" viewBox="0 0 800 420">
<rect x="0.0" y="0.0" width="800.0" height="420.0" rx="0" fill="#0f172a" fill-opacity="1.0" stroke="none" stroke-width="2"/>
<text x="400.0" y="34.0" font-family="Helvetica, Arial, sans-serif" font-size="24" font-weight="bold" fill="#94a3b8" text-anchor="middle">Wood near a sign lampholder</text>
<rect x="160.0" y="70.0" width="80.0" height="300.0" rx="0" fill="#a16207" fill-opacity="0.55" stroke="#ca8a04" stroke-width="2"/>
<path d="M 164 145.0 q 20.0 -6 40.0 0 t 32.0 0" fill="none" stroke="#ca8a04" stroke-width="1" stroke-linecap="round" stroke-linejoin="round"/>
<path d="M 164 220.0 q 20.0 -6 40.0 0 t 32.0 0" fill="none" stroke="#ca8a04" stroke-width="1" stroke-linecap="round" stroke-linejoin="round"/>
<path d="M 164 295.0 q 20.0 -6 40.0 0 t 32.0 0" fill="none" stroke="#ca8a04" stroke-width="1" stroke-linecap="round" stroke-linejoin="round"/>
<text x="200.0" y="400.0" font-family="Helvetica, Arial, sans-serif" font-size="22" fill="#94a3b8" text-anchor="middle">wood</text>
<rect x="360.0" y="190.0" width="50.0" height="74.0" rx="4" fill="#334155" fill-opacity="1.0" stroke="#e2e8f0" stroke-width="3"/>
<circle cx="446.0" cy="227.0" r="32" fill="#fbbf24" stroke="none" stroke-width="2"/>
<text x="400.0" y="300.0" font-family="Helvetica, Arial, sans-serif" font-size="22" font-weight="bold" fill="#e2e8f0" text-anchor="middle">lampholder</text>
<line x1="240.0" y1="130.0" x2="240.0" y2="137.0" stroke="#38bdf8" stroke-width="2" stroke-linecap="round" stroke-opacity="0.7"/>
<line x1="240.0" y1="143.0" x2="240.0" y2="150.0" stroke="#38bdf8" stroke-width="2" stroke-linecap="round" stroke-opacity="0.7"/>
<line x1="240.0" y1="156.0" x2="240.0" y2="163.0" stroke="#38bdf8" stroke-width="2" stroke-linecap="round" stroke-opacity="0.7"/>
<line x1="240.0" y1="169.0" x2="240.0" y2="176.0" stroke="#38bdf8" stroke-width="2" stroke-linecap="round" stroke-opacity="0.7"/>
<line x1="360.0" y1="130.0" x2="360.0" y2="137.0" stroke="#38bdf8" stroke-width="2" stroke-linecap="round" stroke-opacity="0.7"/>
<line x1="360.0" y1="143.0" x2="360.0" y2="150.0" stroke="#38bdf8" stroke-width="2" stroke-linecap="round" stroke-opacity="0.7"/>
<line x1="360.0" y1="156.0" x2="360.0" y2="163.0" stroke="#38bdf8" stroke-width="2" stroke-linecap="round" stroke-opacity="0.7"/>
<line x1="360.0" y1="169.0" x2="360.0" y2="176.0" stroke="#38bdf8" stroke-width="2" stroke-linecap="round" stroke-opacity="0.7"/>
<line x1="360.0" y1="182.0" x2="360.0" y2="186.0" stroke="#38bdf8" stroke-width="2" stroke-linecap="round" stroke-opacity="0.7"/>
<line x1="246.0" y1="150.0" x2="354.0" y2="150.0" stroke="#38bdf8" stroke-width="3" stroke-linecap="round" stroke-opacity="1.0"/>
<polygon points="240.0,150.0 252.0,144.0 252.0,156.0" fill="#38bdf8" fill-opacity="1.0" stroke="none" stroke-width="2"/>
<polygon points="360.0,150.0 348.0,156.0 348.0,144.0" fill="#38bdf8" fill-opacity="1.0" stroke="none" stroke-width="2"/>
<text x="330.0" y="96.0" font-family="Helvetica, Arial, sans-serif" font-size="22" font-weight="bold" fill="#38bdf8" text-anchor="middle">2 in (50 mm)</text>
<text x="330.0" y="120.2" font-family="Helvetica, Arial, sans-serif" font-size="22" font-weight="bold" fill="#38bdf8" text-anchor="middle">min</text>
<text x="520.0" y="200.0" font-family="Helvetica, Arial, sans-serif" font-size="22" fill="#e2e8f0" text-anchor="start">wood enclosures are</text>
<text x="520.0" y="226.4" font-family="Helvetica, Arial, sans-serif" font-size="22" fill="#e2e8f0" text-anchor="start">allowed with this</text>
<text x="520.0" y="252.8" font-family="Helvetica, Arial, sans-serif" font-size="22" fill="#e2e8f0" text-anchor="start">gap to lampholders</text>
<text x="520.0" y="320.0" font-family="Helvetica, Arial, sans-serif" font-size="20" fill="#94a3b8" text-anchor="start">combustibles: never</text>
<text x="520.0" y="343.0" font-family="Helvetica, Arial, sans-serif" font-size="20" fill="#94a3b8" text-anchor="start">above 90 C (194 F)</text>
<rect x="627.9" y="382.0" width="158.1" height="36.0" rx="8" fill="#1e293b" fill-opacity="1.0" stroke="#64748b" stroke-width="2"/>
<text x="637.9" y="410.0" font-family="Helvetica, Arial, sans-serif" font-size="22" font-weight="bold" fill="#38bdf8" text-anchor="start">NEC 600.9(C)</text>
</svg>
