<svg xmlns="http://www.w3.org/2000/svg" width="800" height="400" viewBox="0 0 800 400">
<rect x="0.0" y="0.0" width="800.0" height="400.0" rx="0" fill="#0f172a" fill-opacity="1.0" stroke="none" stroke-width="2"/>
<text x="400.0" y="40.0" font-family="Helvetica, Arial, sans-serif" font-size="24" font-weight="bold" fill="#94a3b8" text-anchor="middle">PVC conduit, trade size 1/2 to 1</text>
<line x1="95.0" y1="150.0" x2="705.0" y2="150.0" stroke="#94a3b8" stroke-width="18" stroke-linecap="round" stroke-opacity="1.0"/>
<line x1="95.0" y1="150.0" x2="705.0" y2="150.0" stroke="#64748b" stroke-width="14" stroke-linecap="round" stroke-opacity="1.0"/>
<rect x="185.0" y="135.0" width="10.0" height="30.0" rx="2" fill="#fbbf24" fill-opacity="1.0" stroke="none" stroke-width="2"/>
<rect x="325.0" y="135.0" width="10.0" height="30.0" rx="2" fill="#fbbf24" fill-opacity="1.0" stroke="none" stroke-width="2"/>
<rect x="465.0" y="135.0" width="10.0" height="30.0" rx="2" fill="#fbbf24" fill-opacity="1.0" stroke="none" stroke-width="2"/>
<rect x="605.0" y="135.0" width="10.0" height="30.0" rx="2" fill="#fbbf24" fill-opacity="1.0" stroke="none" stroke-width="2"/>
<rect x="45.0" y="125.0" width="50.0" height="50.0" rx="4" fill="#334155" fill-opacity="1.0" stroke="#e2e8f0" stroke-width="3"/>
<circle cx="70.0" cy="150.0" r="6.0" fill="#e2e8f0" stroke="none" stroke-width="2"/>
<text x="70.0" y="113.0" font-family="Helvetica, Arial, sans-serif" font-size="22" fill="#e2e8f0" text-anchor="middle">box</text>
<rect x="705.0" y="125.0" width="50.0" height="50.0" rx="4" fill="#334155" fill-opacity="1.0" stroke="#e2e8f0" stroke-width="3"/>
<circle cx="730.0" cy="150.0" r="6.0" fill="#e2e8f0" stroke="none" stroke-width="2"/>
<text x="730.0" y="113.0" font-family="Helvetica, Arial, sans-serif" font-size="22" fill="#e2e8f0" text-anchor="middle">box</text>
<line x1="95.0" y1="168.0" x2="95.0" y2="175.0" stroke="#38bdf8" stroke-width="2" stroke-linecap="round" stroke-opacity="0.7"/>
<line x1="95.0" y1="181.0" x2="95.0" y2="188.0" stroke="#38bdf8" stroke-width="2" stroke-linecap="round" stroke-opacity="0.7"/>
<line x1="95.0" y1="194.0" x2="95.0" y2="201.0" stroke="#38bdf8" stroke-width="2" stroke-linecap="round" stroke-opacity="0.7"/>
<line x1="95.0" y1="207.0" x2="95.0" y2="210.0" stroke="#38bdf8" stroke-width="2" stroke-linecap="round" stroke-opacity="0.7"/>
<line x1="190.0" y1="168.0" x2="190.0" y2="175.0" stroke="#38bdf8" stroke-width="2" stroke-linecap="round" stroke-opacity="0.7"/>
<line x1="190.0" y1="181.0" x2="190.0" y2="188.0" stroke="#38bdf8" stroke-width="2" stroke-linecap="round" stroke-opacity="0.7"/>
<line x1="190.0" y1="194.0" x2="190.0" y2="201.0" stroke="#38bdf8" stroke-width="2" stroke-linecap="round" stroke-opacity="0.7"/>
<line x1="190.0" y1="207.0" x2="190.0" y2="210.0" stroke="#38bdf8" stroke-width="2" stroke-linecap="round" stroke-opacity="0.7"/>
<line x1="101.0" y1="200.0" x2="184.0" y2="200.0" stroke="#38bdf8" stroke-width="3" stroke-linecap="round" stroke-opacity="1.0"/>
<polygon points="95.0,200.0 107.0,194.0 107.0,206.0" fill="#38bdf8" fill-opacity="1.0" stroke="none" stroke-width="2"/>
<polygon points="190.0,200.0 178.0,206.0 178.0,194.0" fill="#38bdf8" fill-opacity="1.0" stroke="none" stroke-width="2"/>
<text x="152.5" y="234.0" font-family="Helvetica, Arial, sans-serif" font-size="22" font-weight="bold" fill="#38bdf8" text-anchor="middle">within</text>
<text x="152.5" y="258.2" font-family="Helvetica, Arial, sans-serif" font-size="22" font-weight="bold" fill="#38bdf8" text-anchor="middle">3 ft</text>
<line x1="190.0" y1="168.0" x2="190.0" y2="175.0" stroke="#38bdf8" stroke-width="2" stroke-linecap="round" stroke-opacity="0.7"/>
<line x1="190.0" y1="181.0" x2="190.0" y2="188.0" stroke="#38bdf8" stroke-width="2" stroke-linecap="round" stroke-opacity="0.7"/>
<line x1="190.0" y1="194.0" x2="190.0" y2="201.0" stroke="#38bdf8" stroke-width="2" stroke-linecap="round" stroke-opacity="0.7"/>
<line x1="190.0" y1="207.0" x2="190.0" y2="210.0" stroke="#38bdf8" stroke-width="2" stroke-linecap="round" stroke-opacity="0.7"/>
<line x1="330.0" y1="168.0" x2="330.0" y2="175.0" stroke="#38bdf8" stroke-width="2" stroke-linecap="round" stroke-opacity="0.7"/>
<line x1="330.0" y1="181.0" x2="330.0" y2="188.0" stroke="#38bdf8" stroke-width="2" stroke-linecap="round" stroke-opacity="0.7"/>
<line x1="330.0" y1="194.0" x2="330.0" y2="201.0" stroke="#38bdf8" stroke-width="2" stroke-linecap="round" stroke-opacity="0.7"/>
<line x1="330.0" y1="207.0" x2="330.0" y2="210.0" stroke="#38bdf8" stroke-width="2" stroke-linecap="round" stroke-opacity="0.7"/>
<line x1="196.0" y1="200.0" x2="324.0" y2="200.0" stroke="#38bdf8" stroke-width="3" stroke-linecap="round" stroke-opacity="1.0"/>
<polygon points="190.0,200.0 202.0,194.0 202.0,206.0" fill="#38bdf8" fill-opacity="1.0" stroke="none" stroke-width="2"/>
<polygon points="330.0,200.0 318.0,206.0 318.0,194.0" fill="#38bdf8" fill-opacity="1.0" stroke="none" stroke-width="2"/>
<text x="260.0" y="236.0" font-family="Helvetica, Arial, sans-serif" font-size="30" font-weight="bold" fill="#34d399" text-anchor="middle">3 ft</text>
<line x1="330.0" y1="168.0" x2="330.0" y2="175.0" stroke="#38bdf8" stroke-width="2" stroke-linecap="round" stroke-opacity="0.7"/>
<line x1="330.0" y1="181.0" x2="330.0" y2="188.0" stroke="#38bdf8" stroke-width="2" stroke-linecap="round" stroke-opacity="0.7"/>
<line x1="330.0" y1="194.0" x2="330.0" y2="201.0" stroke="#38bdf8" stroke-width="2" stroke-linecap="round" stroke-opacity="0.7"/>
<line x1="330.0" y1="207.0" x2="330.0" y2="210.0" stroke="#38bdf8" stroke-width="2" stroke-linecap="round" stroke-opacity="0.7"/>
<line x1="470.0" y1="168.0" x2="470.0" y2="175.0" stroke="#38bdf8" stroke-width="2" stroke-linecap="round" stroke-opacity="0.7"/>
<line x1="470.0" y1="181.0" x2="470.0" y2="188.0" stroke="#38bdf8" stroke-width="2" stroke-linecap="round" stroke-opacity="0.7"/>
<line x1="470.0" y1="194.0" x2="470.0" y2="201.0" stroke="#38bdf8" stroke-width="2" stroke-linecap="round" stroke-opacity="0.7"/>
<line x1="470.0" y1="207.0" x2="470.0" y2="210.0" stroke="#38bdf8" stroke-width="2" stroke-linecap="round" stroke-opacity="0.7"/>
<line x1="336.0" y1="200.0" x2="464.0" y2="200.0" stroke="#38bdf8" stroke-width="3" stroke-linecap="round" stroke-opacity="1.0"/>
<polygon points="330.0,200.0 342.0,194.0 342.0,206.0" fill="#38bdf8" fill-opacity="1.0" stroke="none" stroke-width="2"/>
<polygon points="470.0,200.0 458.0,206.0 458.0,194.0" fill="#38bdf8" fill-opacity="1.0" stroke="none" stroke-width="2"/>
<text x="400.0" y="236.0" font-family="Helvetica, Arial, sans-serif" font-size="30" font-weight="bold" fill="#34d399" text-anchor="middle">3 ft</text>
<line x1="470.0" y1="168.0" x2="470.0" y2="175.0" stroke="#38bdf8" stroke-width="2" stroke-linecap="round" stroke-opacity="0.7"/>
<line x1="470.0" y1="181.0" x2="470.0" y2="188.0" stroke="#38bdf8" stroke-width="2" stroke-linecap="round" stroke-opacity="0.7"/>
<line x1="470.0" y1="194.0" x2="470.0" y2="201.0" stroke="#38bdf8" stroke-width="2" stroke-linecap="round" stroke-opacity="0.7"/>
<line x1="470.0" y1="207.0" x2="470.0" y2="210.0" stroke="#38bdf8" stroke-width="2" stroke-linecap="round" stroke-opacity="0.7"/>
<line x1="610.0" y1="168.0" x2="610.0" y2="175.0" stroke="#38bdf8" stroke-width="2" stroke-linecap="round" stroke-opacity="0.7"/>
<line x1="610.0" y1="181.0" x2="610.0" y2="188.0" stroke="#38bdf8" stroke-width="2" stroke-linecap="round" stroke-opacity="0.7"/>
<line x1="610.0" y1="194.0" x2="610.0" y2="201.0" stroke="#38bdf8" stroke-width="2" stroke-linecap="round" stroke-opacity="0.7"/>
<line x1="610.0" y1="207.0" x2="610.0" y2="210.0" stroke="#38bdf8" stroke-width="2" stroke-linecap="round" stroke-opacity="0.7"/>
<line x1="476.0" y1="200.0" x2="604.0" y2="200.0" stroke="#38bdf8" stroke-width="3" stroke-linecap="round" stroke-opacity="1.0"/>
<polygon points="470.0,200.0 482.0,194.0 482.0,206.0" fill="#38bdf8" fill-opacity="1.0" stroke="none" stroke-width="2"/>
<polygon points="610.0,200.0 598.0,206.0 598.0,194.0" fill="#38bdf8" fill-opacity="1.0" stroke="none" stroke-width="2"/>
<text x="540.0" y="236.0" font-family="Helvetica, Arial, sans-serif" font-size="30" font-weight="bold" fill="#34d399" text-anchor="middle">3 ft</text>
<text x="400.0" y="316.0" font-family="Helvetica, Arial, sans-serif" font-size="22" fill="#94a3b8" text-anchor="middle">larger trade sizes: wider spacing, Table 352.30(B)</text>
<rect x="556.1" y="358.0" width="233.9" height="36.0" rx="8" fill="#1e293b" fill-opacity="1.0" stroke="#64748b" stroke-width="2"/>
<text x="566.1" y="386.0" font-family="Helvetica, Arial, sans-serif" font-size="22" font-weight="bold" fill="#38bdf8" text-anchor="start">NEC Table 352.30(B)</text>
</svg>
