<svg xmlns="http://www.w3.org/2000/svg" width="800" height="470" viewBox="0 0 800 470">
<rect x="0.0" y="0.0" width="800.0" height="470.0" rx="0" fill="#0f172a" fill-opacity="1.0" stroke="none" stroke-width="2"/>
<text x="400.0" y="34.0" font-family="Helvetica, Arial, sans-serif" font-size="24" font-weight="bold" fill="#94a3b8" text-anchor="middle">Switchboard elevation: conductors stay in their own section</text>
<rect x="118.0" y="380.0" width="154.0" height="12.0" rx="0" fill="#64748b" fill-opacity="1.0" stroke="#e2e8f0" stroke-width="1.5"/>
<rect x="120.0" y="110.0" width="150.0" height="270.0" rx="3" fill="#334155" fill-opacity="1.0" stroke="#e2e8f0" stroke-width="4"/>
<line x1="120.0" y1="162.0" x2="270.0" y2="162.0" stroke="#64748b" stroke-width="2" stroke-linecap="round" stroke-opacity="1.0"/>
<circle cx="132.0" cy="122.0" r="3" fill="#64748b" stroke="none" stroke-width="2"/>
<circle cx="132.0" cy="368.0" r="3" fill="#64748b" stroke="none" stroke-width="2"/>
<circle cx="258.0" cy="122.0" r="3" fill="#64748b" stroke="none" stroke-width="2"/>
<circle cx="258.0" cy="368.0" r="3" fill="#64748b" stroke="none" stroke-width="2"/>
<rect x="134.0" y="190.0" width="80.0" height="130.0" rx="5" fill="#334155" fill-opacity="1.0" stroke="#e2e8f0" stroke-width="3"/>
<circle cx="147.3" cy="202.5" r="7.8" fill="#64748b" stroke="none" stroke-width="2"/>
<circle cx="174.0" cy="202.5" r="7.8" fill="#64748b" stroke="none" stroke-width="2"/>
<circle cx="200.7" cy="202.5" r="7.8" fill="#64748b" stroke="none" stroke-width="2"/>
<circle cx="147.3" cy="307.5" r="7.8" fill="#64748b" stroke="none" stroke-width="2"/>
<circle cx="174.0" cy="307.5" r="7.8" fill="#64748b" stroke="none" stroke-width="2"/>
<circle cx="200.7" cy="307.5" r="7.8" fill="#64748b" stroke="none" stroke-width="2"/>
<rect x="141.7" y="225.1" width="11.2" height="59.8" rx="2" fill="#0f172a" fill-opacity="1.0" stroke="#64748b" stroke-width="1.5"/>
<rect x="143.1" y="228.7" width="8.5" height="27.5" rx="2" fill="#e2e8f0" fill-opacity="1.0" stroke="none" stroke-width="2"/>
<rect x="168.4" y="225.1" width="11.2" height="59.8" rx="2" fill="#0f172a" fill-opacity="1.0" stroke="#64748b" stroke-width="1.5"/>
<rect x="169.7" y="228.7" width="8.5" height="27.5" rx="2" fill="#e2e8f0" fill-opacity="1.0" stroke="none" stroke-width="2"/>
<rect x="195.1" y="225.1" width="11.2" height="59.8" rx="2" fill="#0f172a" fill-opacity="1.0" stroke="#64748b" stroke-width="1.5"/>
<rect x="196.4" y="228.7" width="8.5" height="27.5" rx="2" fill="#e2e8f0" fill-opacity="1.0" stroke="none" stroke-width="2"/>
<line x1="147.3" y1="242.4" x2="200.7" y2="242.4" stroke="#e2e8f0" stroke-width="4.784000000000001" stroke-linecap="round" stroke-opacity="1.0"/>
<rect x="308.0" y="380.0" width="154.0" height="12.0" rx="0" fill="#64748b" fill-opacity="1.0" stroke="#e2e8f0" stroke-width="1.5"/>
<rect x="310.0" y="110.0" width="150.0" height="270.0" rx="3" fill="#334155" fill-opacity="1.0" stroke="#e2e8f0" stroke-width="4"/>
<line x1="310.0" y1="162.0" x2="460.0" y2="162.0" stroke="#64748b" stroke-width="2" stroke-linecap="round" stroke-opacity="1.0"/>
<circle cx="322.0" cy="122.0" r="3" fill="#64748b" stroke="none" stroke-width="2"/>
<circle cx="322.0" cy="368.0" r="3" fill="#64748b" stroke="none" stroke-width="2"/>
<circle cx="448.0" cy="122.0" r="3" fill="#64748b" stroke="none" stroke-width="2"/>
<circle cx="448.0" cy="368.0" r="3" fill="#64748b" stroke="none" stroke-width="2"/>
<rect x="324.0" y="176.0" width="80.0" height="52.0" rx="5" fill="#334155" fill-opacity="1.0" stroke="#e2e8f0" stroke-width="3"/>
<circle cx="337.3" cy="181.0" r="3.12" fill="#64748b" stroke="none" stroke-width="2"/>
<circle cx="364.0" cy="181.0" r="3.12" fill="#64748b" stroke="none" stroke-width="2"/>
<circle cx="390.7" cy="181.0" r="3.12" fill="#64748b" stroke="none" stroke-width="2"/>
<circle cx="337.3" cy="223.0" r="3.12" fill="#64748b" stroke="none" stroke-width="2"/>
<circle cx="364.0" cy="223.0" r="3.12" fill="#64748b" stroke="none" stroke-width="2"/>
<circle cx="390.7" cy="223.0" r="3.12" fill="#64748b" stroke="none" stroke-width="2"/>
<rect x="331.7" y="190.0" width="11.2" height="23.9" rx="2" fill="#0f172a" fill-opacity="1.0" stroke="#64748b" stroke-width="1.5"/>
<rect x="333.1" y="191.5" width="8.5" height="11.0" rx="2" fill="#e2e8f0" fill-opacity="1.0" stroke="none" stroke-width="2"/>
<rect x="358.4" y="190.0" width="11.2" height="23.9" rx="2" fill="#0f172a" fill-opacity="1.0" stroke="#64748b" stroke-width="1.5"/>
<rect x="359.7" y="191.5" width="8.5" height="11.0" rx="2" fill="#e2e8f0" fill-opacity="1.0" stroke="none" stroke-width="2"/>
<rect x="385.1" y="190.0" width="11.2" height="23.9" rx="2" fill="#0f172a" fill-opacity="1.0" stroke="#64748b" stroke-width="1.5"/>
<rect x="386.4" y="191.5" width="8.5" height="11.0" rx="2" fill="#e2e8f0" fill-opacity="1.0" stroke="none" stroke-width="2"/>
<line x1="337.3" y1="197.0" x2="390.7" y2="197.0" stroke="#e2e8f0" stroke-width="2.0" stroke-linecap="round" stroke-opacity="1.0"/>
<rect x="324.0" y="242.0" width="80.0" height="52.0" rx="5" fill="#334155" fill-opacity="1.0" stroke="#e2e8f0" stroke-width="3"/>
<circle cx="337.3" cy="247.0" r="3.12" fill="#64748b" stroke="none" stroke-width="2"/>
<circle cx="364.0" cy="247.0" r="3.12" fill="#64748b" stroke="none" stroke-width="2"/>
<circle cx="390.7" cy="247.0" r="3.12" fill="#64748b" stroke="none" stroke-width="2"/>
<circle cx="337.3" cy="289.0" r="3.12" fill="#64748b" stroke="none" stroke-width="2"/>
<circle cx="364.0" cy="289.0" r="3.12" fill="#64748b" stroke="none" stroke-width="2"/>
<circle cx="390.7" cy="289.0" r="3.12" fill="#64748b" stroke="none" stroke-width="2"/>
<rect x="331.7" y="256.0" width="11.2" height="23.9" rx="2" fill="#0f172a" fill-opacity="1.0" stroke="#64748b" stroke-width="1.5"/>
<rect x="333.1" y="257.5" width="8.5" height="11.0" rx="2" fill="#e2e8f0" fill-opacity="1.0" stroke="none" stroke-width="2"/>
<rect x="358.4" y="256.0" width="11.2" height="23.9" rx="2" fill="#0f172a" fill-opacity="1.0" stroke="#64748b" stroke-width="1.5"/>
<rect x="359.7" y="257.5" width="8.5" height="11.0" rx="2" fill="#e2e8f0" fill-opacity="1.0" stroke="none" stroke-width="2"/>
<rect x="385.1" y="256.0" width="11.2" height="23.9" rx="2" fill="#0f172a" fill-opacity="1.0" stroke="#64748b" stroke-width="1.5"/>
<rect x="386.4" y="257.5" width="8.5" height="11.0" rx="2" fill="#e2e8f0" fill-opacity="1.0" stroke="none" stroke-width="2"/>
<line x1="337.3" y1="263.0" x2="390.7" y2="263.0" stroke="#e2e8f0" stroke-width="2.0" stroke-linecap="round" stroke-opacity="1.0"/>
<rect x="324.0" y="308.0" width="80.0" height="52.0" rx="5" fill="#334155" fill-opacity="1.0" stroke="#e2e8f0" stroke-width="3"/>
<circle cx="337.3" cy="313.0" r="3.12" fill="#64748b" stroke="none" stroke-width="2"/>
<circle cx="364.0" cy="313.0" r="3.12" fill="#64748b" stroke="none" stroke-width="2"/>
<circle cx="390.7" cy="313.0" r="3.12" fill="#64748b" stroke="none" stroke-width="2"/>
<circle cx="337.3" cy="355.0" r="3.12" fill="#64748b" stroke="none" stroke-width="2"/>
<circle cx="364.0" cy="355.0" r="3.12" fill="#64748b" stroke="none" stroke-width="2"/>
<circle cx="390.7" cy="355.0" r="3.12" fill="#64748b" stroke="none" stroke-width="2"/>
<rect x="331.7" y="322.0" width="11.2" height="23.9" rx="2" fill="#0f172a" fill-opacity="1.0" stroke="#64748b" stroke-width="1.5"/>
<rect x="333.1" y="323.5" width="8.5" height="11.0" rx="2" fill="#e2e8f0" fill-opacity="1.0" stroke="none" stroke-width="2"/>
<rect x="358.4" y="322.0" width="11.2" height="23.9" rx="2" fill="#0f172a" fill-opacity="1.0" stroke="#64748b" stroke-width="1.5"/>
<rect x="359.7" y="323.5" width="8.5" height="11.0" rx="2" fill="#e2e8f0" fill-opacity="1.0" stroke="none" stroke-width="2"/>
<rect x="385.1" y="322.0" width="11.2" height="23.9" rx="2" fill="#0f172a" fill-opacity="1.0" stroke="#64748b" stroke-width="1.5"/>
<rect x="386.4" y="323.5" width="8.5" height="11.0" rx="2" fill="#e2e8f0" fill-opacity="1.0" stroke="none" stroke-width="2"/>
<line x1="337.3" y1="329.0" x2="390.7" y2="329.0" stroke="#e2e8f0" stroke-width="2.0" stroke-linecap="round" stroke-opacity="1.0"/>
<rect x="498.0" y="380.0" width="154.0" height="12.0" rx="0" fill="#64748b" fill-opacity="1.0" stroke="#e2e8f0" stroke-width="1.5"/>
<rect x="500.0" y="110.0" width="150.0" height="270.0" rx="3" fill="#334155" fill-opacity="1.0" stroke="#e2e8f0" stroke-width="4"/>
<line x1="500.0" y1="162.0" x2="650.0" y2="162.0" stroke="#64748b" stroke-width="2" stroke-linecap="round" stroke-opacity="1.0"/>
<circle cx="512.0" cy="122.0" r="3" fill="#64748b" stroke="none" stroke-width="2"/>
<circle cx="512.0" cy="368.0" r="3" fill="#64748b" stroke="none" stroke-width="2"/>
<circle cx="638.0" cy="122.0" r="3" fill="#64748b" stroke="none" stroke-width="2"/>
<circle cx="638.0" cy="368.0" r="3" fill="#64748b" stroke="none" stroke-width="2"/>
<rect x="514.0" y="176.0" width="80.0" height="52.0" rx="5" fill="#334155" fill-opacity="1.0" stroke="#e2e8f0" stroke-width="3"/>
<circle cx="527.3" cy="181.0" r="3.12" fill="#64748b" stroke="none" stroke-width="2"/>
<circle cx="554.0" cy="181.0" r="3.12" fill="#64748b" stroke="none" stroke-width="2"/>
<circle cx="580.7" cy="181.0" r="3.12" fill="#64748b" stroke="none" stroke-width="2"/>
<circle cx="527.3" cy="223.0" r="3.12" fill="#64748b" stroke="none" stroke-width="2"/>
<circle cx="554.0" cy="223.0" r="3.12" fill="#64748b" stroke="none" stroke-width="2"/>
<circle cx="580.7" cy="223.0" r="3.12" fill="#64748b" stroke="none" stroke-width="2"/>
<rect x="521.7" y="190.0" width="11.2" height="23.9" rx="2" fill="#0f172a" fill-opacity="1.0" stroke="#64748b" stroke-width="1.5"/>
<rect x="523.1" y="191.5" width="8.5" height="11.0" rx="2" fill="#e2e8f0" fill-opacity="1.0" stroke="none" stroke-width="2"/>
<rect x="548.4" y="190.0" width="11.2" height="23.9" rx="2" fill="#0f172a" fill-opacity="1.0" stroke="#64748b" stroke-width="1.5"/>
<rect x="549.7" y="191.5" width="8.5" height="11.0" rx="2" fill="#e2e8f0" fill-opacity="1.0" stroke="none" stroke-width="2"/>
<rect x="575.1" y="190.0" width="11.2" height="23.9" rx="2" fill="#0f172a" fill-opacity="1.0" stroke="#64748b" stroke-width="1.5"/>
<rect x="576.4" y="191.5" width="8.5" height="11.0" rx="2" fill="#e2e8f0" fill-opacity="1.0" stroke="none" stroke-width="2"/>
<line x1="527.3" y1="197.0" x2="580.7" y2="197.0" stroke="#e2e8f0" stroke-width="2.0" stroke-linecap="round" stroke-opacity="1.0"/>
<rect x="514.0" y="242.0" width="80.0" height="52.0" rx="5" fill="#334155" fill-opacity="1.0" stroke="#e2e8f0" stroke-width="3"/>
<circle cx="527.3" cy="247.0" r="3.12" fill="#64748b" stroke="none" stroke-width="2"/>
<circle cx="554.0" cy="247.0" r="3.12" fill="#64748b" stroke="none" stroke-width="2"/>
<circle cx="580.7" cy="247.0" r="3.12" fill="#64748b" stroke="none" stroke-width="2"/>
<circle cx="527.3" cy="289.0" r="3.12" fill="#64748b" stroke="none" stroke-width="2"/>
<circle cx="554.0" cy="289.0" r="3.12" fill="#64748b" stroke="none" stroke-width="2"/>
<circle cx="580.7" cy="289.0" r="3.12" fill="#64748b" stroke="none" stroke-width="2"/>
<rect x="521.7" y="256.0" width="11.2" height="23.9" rx="2" fill="#0f172a" fill-opacity="1.0" stroke="#64748b" stroke-width="1.5"/>
<rect x="523.1" y="257.5" width="8.5" height="11.0" rx="2" fill="#e2e8f0" fill-opacity="1.0" stroke="none" stroke-width="2"/>
<rect x="548.4" y="256.0" width="11.2" height="23.9" rx="2" fill="#0f172a" fill-opacity="1.0" stroke="#64748b" stroke-width="1.5"/>
<rect x="549.7" y="257.5" width="8.5" height="11.0" rx="2" fill="#e2e8f0" fill-opacity="1.0" stroke="none" stroke-width="2"/>
<rect x="575.1" y="256.0" width="11.2" height="23.9" rx="2" fill="#0f172a" fill-opacity="1.0" stroke="#64748b" stroke-width="1.5"/>
<rect x="576.4" y="257.5" width="8.5" height="11.0" rx="2" fill="#e2e8f0" fill-opacity="1.0" stroke="none" stroke-width="2"/>
<line x1="527.3" y1="263.0" x2="580.7" y2="263.0" stroke="#e2e8f0" stroke-width="2.0" stroke-linecap="round" stroke-opacity="1.0"/>
<rect x="514.0" y="308.0" width="80.0" height="52.0" rx="5" fill="#334155" fill-opacity="1.0" stroke="#e2e8f0" stroke-width="3"/>
<circle cx="527.3" cy="313.0" r="3.12" fill="#64748b" stroke="none" stroke-width="2"/>
<circle cx="554.0" cy="313.0" r="3.12" fill="#64748b" stroke="none" stroke-width="2"/>
<circle cx="580.7" cy="313.0" r="3.12" fill="#64748b" stroke="none" stroke-width="2"/>
<circle cx="527.3" cy="355.0" r="3.12" fill="#64748b" stroke="none" stroke-width="2"/>
<circle cx="554.0" cy="355.0" r="3.12" fill="#64748b" stroke="none" stroke-width="2"/>
<circle cx="580.7" cy="355.0" r="3.12" fill="#64748b" stroke="none" stroke-width="2"/>
<rect x="521.7" y="322.0" width="11.2" height="23.9" rx="2" fill="#0f172a" fill-opacity="1.0" stroke="#64748b" stroke-width="1.5"/>
<rect x="523.1" y="323.5" width="8.5" height="11.0" rx="2" fill="#e2e8f0" fill-opacity="1.0" stroke="none" stroke-width="2"/>
<rect x="548.4" y="322.0" width="11.2" height="23.9" rx="2" fill="#0f172a" fill-opacity="1.0" stroke="#64748b" stroke-width="1.5"/>
<rect x="549.7" y="323.5" width="8.5" height="11.0" rx="2" fill="#e2e8f0" fill-opacity="1.0" stroke="none" stroke-width="2"/>
<rect x="575.1" y="322.0" width="11.2" height="23.9" rx="2" fill="#0f172a" fill-opacity="1.0" stroke="#64748b" stroke-width="1.5"/>
<rect x="576.4" y="323.5" width="8.5" height="11.0" rx="2" fill="#e2e8f0" fill-opacity="1.0" stroke="none" stroke-width="2"/>
<line x1="527.3" y1="329.0" x2="580.7" y2="329.0" stroke="#e2e8f0" stroke-width="2.0" stroke-linecap="round" stroke-opacity="1.0"/>
<polyline points="244.0,80.0 244.0,255.0 214.0,255.0" fill="none" stroke="#e2e8f0" stroke-width="4" stroke-linecap="round" stroke-linejoin="round"/>
<polyline points="434.0,80.0 434.0,268.0 404.0,268.0" fill="none" stroke="#e2e8f0" stroke-width="4" stroke-linecap="round" stroke-linejoin="round"/>
<polyline points="624.0,80.0 624.0,202.0 594.0,202.0" fill="none" stroke="#e2e8f0" stroke-width="4" stroke-linecap="round" stroke-linejoin="round"/>
<polyline points="258.0,80.0 258.0,140.0 420.0,140.0 420.0,202.0 404.0,202.0" fill="none" stroke="#f87171" stroke-width="4" stroke-linecap="round" stroke-linejoin="round"/>
<circle cx="290.0" cy="140.0" r="13" fill="#f87171" stroke="none" stroke-width="2"/>
<line x1="284.5" y1="134.5" x2="295.5" y2="145.5" stroke="#0f172a" stroke-width="5" stroke-linecap="round" stroke-opacity="1.0"/>
<line x1="284.5" y1="145.5" x2="295.5" y2="134.5" stroke="#0f172a" stroke-width="5" stroke-linecap="round" stroke-opacity="1.0"/>
<text x="400.0" y="420.0" font-family="Helvetica, Arial, sans-serif" font-size="20" fill="#e2e8f0" text-anchor="middle">only the conductors that end in a vertical</text>
<text x="400.0" y="443.0" font-family="Helvetica, Arial, sans-serif" font-size="20" fill="#e2e8f0" text-anchor="middle">section run in that section</text>
<rect x="601.0" y="38.0" width="185.0" height="36.0" rx="8" fill="#1e293b" fill-opacity="1.0" stroke="#64748b" stroke-width="2"/>
<text x="611.0" y="66.0" font-family="Helvetica, Arial, sans-serif" font-size="22" font-weight="bold" fill="#38bdf8" text-anchor="start">NEC 408.3(A)(2)</text>
</svg>
